<?xml version="1.0" standalone="no"?>
<!DOCTYPE svg PUBLIC "-//W3C//DTD SVG 1.1//EN" "http://www.w3.org/Graphics/SVG/1.1/DTD/svg11.dtd" >
<svg xmlns="http://www.w3.org/2000/svg">
<metadata>
Created by FontPrep 20130207 at Tue Apr 14 09:50:11 2015
 By Peter
(c) 1989, 1995, 2002 Adobe Systems Incorporated. All rights reserved.
</metadata>
<defs>
<font id="2d92c7089977381e7146422e05fbbf56" horiz-adv-x='1024' >
  <font-face 
    font-family="AvenirLTStd-BookOblique"
    font-weight="400"
    font-style="oblique"
    font-stretch="normal"
    units-per-em="2048"
    panose-1="2 0 5 3 0 0 0 0 0 0"
    ascent="1548"
    descent="-500"
    x-height="958"
    cap-height="1450"
    bbox="-342 -590 2138 1884"
    underline-thickness="102"
    underline-position="-102"
    slope="-8"
    unicode-range="U+0020-2044"
  />
<missing-glyph horiz-adv-x="1024" 
 />
    <glyph glyph-name=".notdef" horiz-adv-x="1024" 
 />
    <glyph glyph-name=".null" horiz-adv-x="0" 
 />
    <glyph glyph-name="nonmarkingreturn" horiz-adv-x="681" 
 />
    <glyph glyph-name="space" unicode=" " horiz-adv-x="569" 
 />
    <glyph glyph-name="exclam" unicode="!" horiz-adv-x="569" 
d="M311 209q47 0 78 -33q27 -37 21 -79t-42 -76q-36 -33 -84 -33t-75 32t-21 77q6 44 41 78t82 34zM563 1450l-149 -1057h-148l150 1057h147z" />
    <glyph glyph-name="quotedbl" unicode="&#x22;" horiz-adv-x="1062" 
d="M754 969l69 481h123l-69 -481h-123zM457 969l69 481h123l-69 -481h-123z" />
    <glyph glyph-name="numbersign" unicode="#" 
d="M592 893l-90 -332h272l90 332h-272zM219 0l123 438h-209l19 123h225l90 332h-221l18 123h240l121 434h125l-121 -434h272l121 434h125l-121 -434h184l-18 -123h-203l-90 -332h195l-19 -123h-211l-123 -438h-125l123 438h-272l-123 -438h-125z" />
    <glyph glyph-name="dollar" unicode="$" 
d="M535 100l79 572q-168 53 -263 146t-73 262t154 278q133 109 295 121l21 143h98l-19 -139q229 0 355 -174l-129 -99q-31 72 -101 106t-145 32l-76 -547q90 -35 146 -64q55 -29 115 -82q118 -105 93 -281q-25 -175 -155 -288q-137 -111 -316 -119l-20 -139h-98l18 135
q-135 10 -242 70q-104 63 -157 155l135 88q53 -84 136 -131t149 -45zM709 643l-76 -541q55 0 121 21q63 27 115 86t69 156q31 192 -229 278zM637 829l72 517q-111 -10 -191 -84t-93 -174t43 -158t169 -101z" />
    <glyph glyph-name="percent" unicode="%" horiz-adv-x="1705" 
d="M1571 1458l-1135 -1521l-100 55l1139 1521zM1282 98q100 0 178 68t92 167t-45 169q-61 68 -159 68t-178 -68t-93 -167q-14 -99 45 -169q60 -68 160 -68zM1368 692q150 0 240 -103t67 -255t-141 -256q-122 -102 -272 -102t-240 102q-90 104 -68 256q23 152 142 256
q122 102 272 102zM629 1352q-98 0 -177 -68q-80 -68 -94 -167t45 -168t157 -69t180 68q80 68 94 168t-46 168t-159 68zM544 758q-150 0 -241 103q-90 103 -67 255q24 152 142 255t268 103t241 -102q89 -106 67 -257t-139 -255q-121 -102 -271 -102z" />
    <glyph glyph-name="ampersand" unicode="&#x26;" horiz-adv-x="1441" 
d="M564 98q114 0 199 54t183 159l-325 402q-158 -84 -226 -155q-68 -70 -85 -186t61 -195q79 -79 193 -79zM987 1161q12 86 -40 138q-52 53 -139 53t-157 -58t-86 -155q-8 -66 30 -140t85 -120l45 22q11 6 23 12q12 7 19 11t11 6l45 24l49 33q6 6 42 38t57 85q14 26 16 51z
M824 1487q154 0 243 -86q88 -87 69 -227q-20 -140 -118 -226t-256 -164l285 -344l247 344h166l-330 -448l279 -336h-209l-174 213q-114 -125 -226 -187t-253 -63q-190 0 -306 114t-89 300q37 272 389 428q-145 188 -121 344t136 247q114 91 268 91z" />
    <glyph glyph-name="quotesingle" unicode="'" horiz-adv-x="532" 
d="M340 969l70 481h122l-69 -481h-123z" />
    <glyph glyph-name="parenleft" unicode="(" horiz-adv-x="532" 
d="M618 1507l101 -69q-170 -223 -264 -417t-127 -429q-33 -236 3 -422t142 -416l-119 -82q-110 190 -152 433q-82 480 134 964q110 239 282 438z" />
    <glyph glyph-name="parenright" unicode=")" horiz-adv-x="532" 
d="M80 -328l-100 70q170 224 262 414t127 431t-2 427t-142 411l119 82q113 -193 152 -430q88 -483 -136 -966q-106 -238 -280 -439z" />
    <glyph glyph-name="asterisk" unicode="*" horiz-adv-x="909" 
d="M721 1450l-43 -293l301 92l27 -114l-301 -93l149 -247l-111 -74l-151 254l-225 -254l-86 74l219 247l-277 93l60 114l272 -92l43 293h123z" />
    <glyph glyph-name="plus" unicode="+" horiz-adv-x="1363" 
d="M903 1143l-63 -461h460l-18 -123h-461l-63 -461h-123l63 461h-460l18 123h461l63 461h123z" />
    <glyph glyph-name="comma" unicode="," horiz-adv-x="569" 
d="M463 195l-234 -482h-137l205 482h166z" />
    <glyph glyph-name="hyphen" unicode="-" horiz-adv-x="681" 
d="M682 559l-18 -135h-527l19 135h526z" />
    <glyph glyph-name="period" unicode="." horiz-adv-x="569" 
d="M311 209q47 0 78 -33q27 -37 21 -79t-42 -76q-36 -33 -84 -33t-75 32t-21 77q6 44 41 78t82 34z" />
    <glyph glyph-name="slash" unicode="/" horiz-adv-x="757" 
d="M950 1446l-827 -1483l-113 39l830 1485z" />
    <glyph glyph-name="zero" unicode="0" 
d="M758 1339q-348 0 -430 -614q-90 -614 258 -614q340 0 430 614q82 614 -258 614zM776 1475q121 0 203 -50q84 -47 127 -120q41 -76 60 -184t14 -195q0 -86 -16 -203t-40 -202t-70 -193t-110 -184t-162 -119q-98 -49 -208 -49q-206 -1 -304 122q-91 128 -101 272
q-5 76 -5 187q16 226 47 343q71 268 190 405q63 76 160 120q94 50 215 50z" />
    <glyph glyph-name="one" unicode="1" 
d="M918 1450l-205 -1450h-148l178 1266l-292 -230l-76 111l411 303h132z" />
    <glyph glyph-name="two" unicode="2" 
d="M1038 135l-18 -135h-922l25 170l659 588q70 63 105 98t75 99t50 130q16 119 -54 187t-184 68t-201 -61q-86 -60 -127 -167l-153 16q51 160 183 253t309 93t289 -98q112 -100 87 -278q-15 -147 -135 -287q-90 -106 -229 -223l-521 -453h762z" />
    <glyph glyph-name="three" unicode="3" 
d="M610 827q136 1 236 65t118 192t-44 190q-59 66 -189 65q-186 0 -299 -159l-121 65q160 229 434 230q180 0 285 -103q106 -98 82 -274q-16 -115 -97 -206t-194 -126l4 -4q121 -29 183 -129t45 -240q-29 -195 -176 -307q-152 -111 -347 -111q-342 0 -415 293l164 47
q20 -102 88 -153q67 -51 195 -51t229 82q100 82 114 204q20 152 -74 224t-251 71h-64l19 135h75z" />
    <glyph glyph-name="four" unicode="4" 
d="M772 479l115 824h-4l-615 -824h504zM1057 1450l-137 -971h208l-18 -135h-209l-49 -344h-147l49 344h-627l23 168l718 938h189z" />
    <glyph glyph-name="five" unicode="5" 
d="M512 -25q-135 0 -242 66q-100 70 -139 192l154 64q31 -84 98 -137q68 -49 162 -49q137 0 246 94q106 96 127 229q20 152 -66 250q-90 94 -243 94t-312 -80l121 752h739l-20 -135h-594l-70 -436q94 35 201 34q201 0 313 -131q105 -134 79 -336t-185 -340
q-160 -131 -369 -131z" />
    <glyph glyph-name="six" unicode="6" 
d="M584 111q143 0 247 86q101 90 121 226t-56 225t-222 89q-145 0 -246 -86q-100 -90 -122 -226t57 -225q78 -89 221 -89zM721 872q188 0 299 -127q106 -129 80 -323t-178 -321q-150 -126 -357 -126t-321 126q-114 127 -85 317q28 190 179 395l481 637h174l-483 -623l4 -4
q76 49 207 49z" />
    <glyph glyph-name="seven" unicode="7" 
d="M1176 1450l-21 -135l-768 -1315h-166l780 1315h-706l20 135h861z" />
    <glyph glyph-name="eight" unicode="8" 
d="M669 705q-138 0 -239 -84q-96 -84 -114 -214t56 -213q75 -83 213 -83t238 84q97 84 115 214t-56 213t-213 83zM688 827q110 0 193 74q82 69 98 182t-47 185t-174 72t-196 -74q-85 -72 -100 -183q-16 -111 50 -183t176 -73zM568 -25q-190 0 -311 115q-120 115 -91 297
q24 145 110 245t213 136v4q-92 35 -137 123q-49 90 -35 201q25 166 157 272t301 106t273 -104q104 -106 80 -274q-16 -113 -89 -202t-173 -122v-4q117 -35 178 -137q59 -104 39 -244q-29 -186 -178 -297q-147 -115 -337 -115z" />
    <glyph glyph-name="nine" unicode="9" 
d="M759 1339q-144 0 -247 -86q-102 -90 -122 -227t58 -225q77 -88 222 -88q144 0 246 89t120 224q20 135 -56 224t-221 89zM623 578q-190 0 -299 128t-82 324t180 320q145 125 352 125t322 -125q115 -126 87 -320t-177 -393l-482 -637h-174l484 623l-5 4q-76 -49 -206 -49z
" />
    <glyph glyph-name="colon" unicode=":" horiz-adv-x="569" 
d="M311 209q47 0 78 -33q27 -37 21 -79t-42 -76q-36 -33 -84 -33t-75 32t-21 77q6 44 41 78t82 34zM418 969q47 0 78 -33q26 -37 20 -79t-42 -76q-36 -33 -84 -33t-75 32t-21 77q6 44 42 78q35 34 82 34z" />
    <glyph glyph-name="semicolon" unicode=";" horiz-adv-x="569" 
d="M438 969q49 0 74 -33q29 -31 23 -76t-42 -79q-36 -33 -84 -33t-75 32t-21 77q6 44 41 78t84 34zM463 195l-234 -482h-137l205 482h166z" />
    <glyph glyph-name="less" unicode="&#x3c;" horiz-adv-x="1363" 
d="M1366 1155l-16 -123l-936 -411l819 -412l-16 -123l-977 487l14 95z" />
    <glyph glyph-name="equal" unicode="=" horiz-adv-x="1363" 
d="M233 528h1045l-16 -122h-1045zM276 836h1045l-16 -123h-1045z" />
    <glyph glyph-name="greater" unicode="&#x3e;" horiz-adv-x="1363" 
d="M305 1032l17 123l976 -487l-14 -95l-1112 -487l16 123l938 412z" />
    <glyph glyph-name="question" unicode="?" horiz-adv-x="987" 
d="M532 209q48 0 74 -33q29 -31 23 -76t-42 -79q-36 -33 -84 -33t-75 32q-26 32 -20 77q6 44 41 78t83 34zM635 498l-14 -105h-148l25 170q15 108 149 219q89 80 109 90q57 47 96 105q45 59 53 127q16 104 -43 170q-60 66 -164 66t-181 -62q-77 -61 -109 -162l-152 19
q47 158 170 249q131 90 294 90t261 -94q94 -98 74 -264q-16 -102 -60 -168q-43 -72 -98 -117l-111 -86q-129 -100 -151 -247z" />
    <glyph glyph-name="at" unicode="@" horiz-adv-x="1638" 
d="M848 -37q-317 0 -508 221q-197 220 -150 540q48 320 302 542t557 221q303 0 481 -178q178 -177 143 -437t-217 -426t-338 -165q-63 0 -94 30q-35 29 -31 90h-4q-137 -121 -271 -121t-202 86q-68 85 -49 222q35 225 195 401t366 176q176 0 209 -168h4l64 129h114
l-252 -577q-50 -102 -24 -133q12 -12 33 -13q106 0 229 142q121 143 141 305q33 223 -121 375q-158 152 -378 151q-260 0 -482 -196q-219 -201 -254 -456t127 -454q166 -197 426 -196q154 0 304 66t249 182h129q-115 -162 -309 -265q-193 -94 -389 -94zM1147 838
q12 86 -29 145t-106 59q-143 -6 -267 -147q-119 -141 -141 -295q-12 -84 34 -140t132 -57q125 0 242 148t135 287z" />
    <glyph glyph-name="A" unicode="A" horiz-adv-x="1404" 
d="M883 1278l-424 -762h628zM385 381l-213 -381h-172l836 1450h143l426 -1450h-172l-107 381h-741z" />
    <glyph glyph-name="B" unicode="B" horiz-adv-x="1290" 
d="M645 135q172 0 285 70q117 68 136 206t-62 212q-86 70 -261 69h-301l-80 -557h283zM756 815q121 0 218 64q121 80 111 256q-6 29 -27 75t-88 76q-67 29 -159 29h-283l-69 -500h297zM834 1450q204 0 322 -87t91 -278q-14 -117 -94 -203t-205 -114l-2 -4q152 -12 226 -108
q98 -127 32 -332q-53 -130 -160 -209q-53 -43 -167 -82q-111 -33 -238 -33h-442l204 1450h433z" />
    <glyph glyph-name="C" unicode="C" horiz-adv-x="1441" 
d="M848 -37q-328 0 -508 217q-184 217 -138 547t290 545t571 215q147 0 271 -57t198 -173l-141 -96q-33 72 -136 133q-104 57 -211 58q-270 0 -458 -184t-226 -444q-38 -261 101 -441q137 -185 409 -185t445 217l108 -86q-93 -117 -247 -191t-328 -75z" />
    <glyph glyph-name="D" unicode="D" horiz-adv-x="1517" 
d="M629 135q313 0 506 174t226 411t-101 413q-66 86 -185 134t-280 48h-287l-166 -1180h287zM862 1450q230 0 412 -118t242 -347q27 -129 6 -260q-35 -231 -174 -400q-138 -169 -322 -247t-369 -78h-481l205 1450h481z" />
    <glyph glyph-name="E" unicode="E" horiz-adv-x="1214" 
d="M440 686l-78 -551h777l-19 -135h-923l204 1450h899l-20 -135h-752l-69 -494h702l-18 -135h-703z" />
    <glyph glyph-name="F" unicode="F" 
d="M440 686l-96 -686h-147l204 1450h875l-21 -135h-727l-69 -494h676l-19 -135h-676z" />
    <glyph glyph-name="G" unicode="G" horiz-adv-x="1593" 
d="M1036 1352q-262 0 -450 -184t-226 -444q-38 -261 101 -441q137 -184 407 -185q221 0 416 103l68 485h-346l18 135h494l-99 -710q-271 -147 -585 -147t-494 216q-184 217 -138 547t290 545t574 215t495 -195l-127 -108q-136 168 -398 168z" />
    <glyph glyph-name="H" unicode="H" horiz-adv-x="1478" 
d="M197 0l204 1450h148l-90 -629h790l90 629h148l-205 -1450h-147l96 686h-791l-96 -686h-147z" />
    <glyph glyph-name="I" unicode="I" horiz-adv-x="540" 
d="M549 1450l-205 -1450h-147l204 1450h148z" />
    <glyph glyph-name="J" unicode="J" horiz-adv-x="987" 
d="M422 98q256 0 305 361l141 991h148l-150 -1053q-20 -157 -127 -288q-119 -146 -361 -146q-132 1 -220 77t-92 226l153 31q14 -199 203 -199z" />
    <glyph glyph-name="K" unicode="K" horiz-adv-x="1290" 
d="M549 1450l-90 -629h20l772 629h211l-825 -657l661 -793h-217l-608 748h-24l-105 -748h-147l204 1450h148z" />
    <glyph glyph-name="L" unicode="L" horiz-adv-x="1024" 
d="M549 1450l-187 -1315h676l-18 -135h-823l204 1450h148z" />
    <glyph glyph-name="M" unicode="M" horiz-adv-x="1822" 
d="M627 1450l323 -1180l656 1180h225l-205 -1450h-147l176 1253h-4l-701 -1253h-78l-348 1253h-4l-176 -1253h-147l204 1450h226z" />
    <glyph glyph-name="N" unicode="N" horiz-adv-x="1593" 
d="M586 1450l690 -1229h4l174 1229h148l-205 -1450h-185l-690 1241h-4l-174 -1241h-147l204 1450h185z" />
    <glyph glyph-name="O" unicode="O" horiz-adv-x="1708" 
d="M461 283q137 -185 407 -185t458 184t226 444q37 261 -100 443q-138 183 -408 183t-458 -184t-226 -444q-38 -261 101 -441zM846 -37q-326 0 -506 217q-184 217 -138 547t290 545t570 215t511 -217q184 -217 138 -547t-292 -545q-247 -215 -573 -215z" />
    <glyph glyph-name="P" unicode="P" horiz-adv-x="1175" 
d="M696 809q352 0 389 254q15 115 -59 183t-260 69h-238l-69 -506h237zM823 1450q225 0 338 -98t85 -290t-167 -290t-366 -98h-275l-94 -674h-147l204 1450h422z" />
    <glyph glyph-name="Q" unicode="Q" horiz-adv-x="1708" 
d="M831 0q-315 0 -495 211q-178 213 -133 533t283 532q238 211 553 211q316 0 495 -211q178 -213 133 -533q-57 -422 -424 -604l-2 -4h438l-18 -135h-830zM850 135q260 0 442 179t216 431q34 251 -98 429t-390 178t-442 -180t-217 -431q-35 -252 97 -429t392 -177z" />
    <glyph glyph-name="R" unicode="R" horiz-adv-x="1214" 
d="M721 809q352 0 389 254q16 115 -58 183t-261 69h-263l-69 -506h262zM848 1450q225 0 338 -98t84 -289q-23 -156 -135 -256q-109 -102 -289 -119l321 -688h-180l-303 674h-246l-94 -674h-147l204 1450h447z" />
    <glyph glyph-name="S" unicode="S" 
d="M553 -37q-299 0 -426 215l147 96q37 -82 117 -129t193 -47t220 71t124 193q12 84 -23 140q-45 86 -205 137q-226 72 -298 124t-103 128q-31 75 -13 195t99 219q163 182 423 182q259 0 388 -176l-143 -101q-74 141 -260 142q-129 0 -229 -68t-118 -204q-17 -136 117 -212
q57 -28 131 -54q210 -72 291 -130q132 -98 105 -301q-29 -188 -189 -305q-168 -115 -348 -115z" />
    <glyph glyph-name="T" unicode="T" horiz-adv-x="1175" 
d="M846 1315l-184 -1315h-148l184 1315h-485l20 135h1119l-21 -135h-485z" />
    <glyph glyph-name="U" unicode="U" horiz-adv-x="1404" 
d="M698 -37q-253 0 -358 135q-106 143 -100 291q4 102 8 152l129 909h147l-127 -893q-14 -119 0 -209q18 -84 54 -135q35 -41 90 -74q59 -29 94 -33q33 -8 81 -8t84 6t105 35q61 31 111 74q49 51 90 135q43 100 57 209l127 893h148l-129 -909q-8 -76 -35 -154
q-18 -66 -68 -151t-116 -140q-54 -53 -160 -93t-232 -40z" />
    <glyph glyph-name="V" unicode="V" horiz-adv-x="1251" 
d="M362 1450l287 -1229h4l650 1229h159l-770 -1450h-147l-346 1450h163z" />
    <glyph glyph-name="W" unicode="W" horiz-adv-x="1933" 
d="M369 1450l172 -1241h4l540 1241h177l188 -1241h4l520 1241h164l-633 -1450h-172l-190 1241h-4l-539 -1241h-172l-223 1450h164z" />
    <glyph glyph-name="X" unicode="X" horiz-adv-x="1290" 
d="M457 1450l313 -580l487 580h185l-590 -688l426 -762h-195l-350 657l-536 -657h-185l637 762l-391 688h199z" />
    <glyph glyph-name="Y" unicode="Y" horiz-adv-x="1175" 
d="M750 625l-88 -625h-148l88 625l-426 825h184l336 -684l529 684h184z" />
    <glyph glyph-name="Z" unicode="Z" 
d="M1284 1450l-18 -123l-1014 -1192h858l-18 -135h-1045l16 123l1016 1192h-835l20 135h1020z" />
    <glyph glyph-name="bracketleft" unicode="[" horiz-adv-x="532" 
d="M676 1499l-17 -110h-196l-223 -1598h196l-16 -110h-332l256 1818h332z" />
    <glyph glyph-name="backslash" unicode="\" horiz-adv-x="757" 
d="M623 -37l-410 1483l123 41l412 -1485z" />
    <glyph glyph-name="bracketright" unicode="]" horiz-adv-x="532" 
d="M23 -319l16 110h197l223 1598h-197l17 110h331l-256 -1818h-331z" />
    <glyph glyph-name="asciicircum" unicode="^" horiz-adv-x="1363" 
d="M244 563l594 887h98l344 -887h-127l-289 740l-493 -740h-127z" />
    <glyph glyph-name="underscore" unicode="_" horiz-adv-x="1024" 
d="M-37 -256l14 102h1024l-14 -102h-1024z" />
    <glyph glyph-name="grave" unicode="`" horiz-adv-x="491" 
d="M412 1155l-228 295h187l161 -295h-120z" />
    <glyph glyph-name="a" unicode="a" horiz-adv-x="1062" 
d="M760 477q-449 0 -475 -203q-12 -88 47 -132t153 -44q141 0 228 86q84 88 106 224l10 69h-69zM776 588h68l4 24q33 248 -211 248q-170 0 -309 -112l-68 96q158 139 424 139q152 0 239 -87t64 -253l-59 -428q-14 -94 -15 -215h-131q-4 82 11 156h-5q-137 -180 -364 -181
q-137 0 -223 74q-84 74 -66 207q12 88 62 154q53 66 112 98q151 80 467 80z" />
    <glyph glyph-name="b" unicode="b" horiz-adv-x="1251" 
d="M674 98q164 0 278 108t137 272q23 165 -61 274q-84 108 -249 108t-287 -110q-127 -106 -149 -270q-21 -164 73 -274q94 -108 258 -108zM797 983q223 0 347 -143q124 -144 93 -360t-194 -360t-388 -145q-102 1 -198 47t-148 138h-4l-22 -160h-136l218 1548h135l-105 -749
h4q80 92 188 138t210 46z" />
    <glyph glyph-name="c" unicode="c" horiz-adv-x="987" 
d="M1071 817l-123 -84q-29 57 -86 90q-59 37 -135 37q-164 4 -276 -106q-113 -102 -138 -274t60 -275q80 -111 248 -107q75 0 143 35t113 92l100 -84q-162 -162 -384 -166q-222 -5 -340 139t-87 364q32 220 190 364t380 140q222 -3 335 -165z" />
    <glyph glyph-name="d" unicode="d" horiz-adv-x="1251" 
d="M606 98q164 0 290 110t148 272t-73 270q-92 110 -255 110t-282 -106q-112 -113 -136 -276q-24 -164 60 -272t248 -108zM729 983q101 0 199 -46t149 -138h4l105 749h135l-217 -1548h-135l22 160h-4q-81 -92 -189 -138t-210 -47q-223 -1 -346 143t-92 361q32 217 192 361
t387 143z" />
    <glyph glyph-name="e" unicode="e" 
d="M708 860q-138 0 -254 -96t-130 -211h647q18 139 -53 223q-72 84 -210 84zM590 -25q-215 1 -335 145t-89 358t190 362q160 143 367 142t312 -138t77 -340l-10 -62h-799q-8 -143 78 -243t227 -101q100 0 188 47t142 119l92 -86q-186 -203 -440 -203z" />
    <glyph glyph-name="f" unicode="f" horiz-adv-x="606" 
d="M774 1573q55 0 115 -14l-41 -123q-55 14 -103 14q-104 0 -149 -65t-59 -181l-35 -246h227l-18 -122h-228l-116 -836h-136l117 836h-203l19 122h203l36 263q49 352 371 352z" />
    <glyph glyph-name="g" unicode="g" horiz-adv-x="1251" 
d="M732 860q-156 0 -275 -108t-142 -261t67 -261t238 -108q150 0 275 105q125 104 139 265q20 156 -62 262q-84 106 -240 106zM537 -369q190 0 297 103q104 104 129 274l22 172h-4q-143 -180 -383 -180q-207 0 -336 139q-123 139 -96 348q32 209 188 353t380 143
q224 0 335 -184h4l23 159h135l-133 -950q-22 -180 -142 -325q-140 -173 -432 -174t-446 192l117 106q49 -82 139 -129t203 -47z" />
    <glyph glyph-name="h" unicode="h" 
d="M745 983q178 0 259 -98q76 -98 51 -277l-86 -608h-135l73 530q25 170 -22 248q-43 82 -191 82q-39 0 -116 -29q-53 -25 -95 -57q-101 -96 -131 -282l-69 -492h-136l218 1548h135l-105 -743h4q55 76 153 127t193 51z" />
    <glyph glyph-name="i" unicode="i" horiz-adv-x="491" 
d="M530 1327q-6 -41 -38 -70q-79 -59 -140 0q-25 29 -18 70q6 41 39 70q79 58 139 0q24 -29 18 -70zM449 958l-136 -958h-135l135 958h136z" />
    <glyph glyph-name="j" unicode="j" horiz-adv-x="491" 
d="M530 1327q-6 -41 -38 -70q-79 -59 -140 0q-25 29 -18 70q6 41 39 70q79 58 139 0q24 -29 18 -70zM-94 -354q106 -35 176 18q39 37 50 72t22 96l159 1126h136l-162 -1148q-20 -141 -80 -209q-80 -92 -234 -93q-59 1 -102 21z" />
    <glyph glyph-name="k" unicode="k" horiz-adv-x="987" 
d="M500 1548l-144 -1022l514 432h203l-538 -438l454 -520h-209l-426 504l-71 -504h-136l218 1548h135z" />
    <glyph glyph-name="l" unicode="l" horiz-adv-x="491" 
d="M530 1548l-217 -1548h-135l217 1548h135z" />
    <glyph glyph-name="m" unicode="m" horiz-adv-x="1744" 
d="M733 983q229 0 279 -199q51 88 147 146q100 53 195 53q182 0 256 -98q78 -92 53 -277l-86 -608h-135l78 559q24 157 -20 229t-181 72t-217 -100t-101 -250l-71 -510h-135l77 559q23 157 -20 229t-178 72q-40 0 -113 -29q-49 -27 -86 -57q-37 -37 -74 -110
q-33 -74 -49 -172l-69 -492h-136l105 745q4 27 20 213h146l-21 -145h4q57 80 149 125t183 45z" />
    <glyph glyph-name="n" unicode="n" 
d="M745 983q178 0 259 -98q76 -98 51 -277l-86 -608h-135l73 530q25 170 -22 248q-43 82 -191 82q-39 0 -116 -29q-53 -25 -95 -57q-101 -96 -131 -282l-69 -492h-136l105 748q12 104 20 210h140q-4 -84 -17 -153h4q55 76 153 127t193 51z" />
    <glyph glyph-name="o" unicode="o" horiz-adv-x="1214" 
d="M622 98q163 0 276 108t137 272q24 165 -60 274q-84 108 -247 108q-164 0 -278 -108t-137 -273t61 -273t248 -108zM742 983q224 1 348 -143t94 -360q-31 -216 -194 -360t-386 -144t-346 142q-123 144 -92 361q32 217 192 361t384 143z" />
    <glyph glyph-name="p" unicode="p" horiz-adv-x="1251" 
d="M674 98q164 0 278 108t137 272q23 165 -61 274q-84 108 -249 108t-287 -110q-127 -106 -149 -270q-21 -164 73 -274q94 -108 258 -108zM797 983q223 0 347 -143q124 -144 93 -360t-194 -360t-388 -145q-102 1 -198 47t-148 138h-4l-104 -750h-135l217 1548h135l-23 -159
h4q80 92 188 138t210 46z" />
    <glyph glyph-name="q" unicode="q" horiz-adv-x="1251" 
d="M606 98q164 0 290 110t148 272t-73 270q-92 110 -255 110t-282 -106q-112 -113 -136 -276q-24 -164 60 -272t248 -108zM729 983q101 0 199 -46t149 -138h4l23 159h135l-217 -1548h-135l104 750h-4q-81 -92 -189 -138t-210 -47q-223 -1 -346 143t-92 361q32 217 192 361
t387 143z" />
    <glyph glyph-name="r" unicode="r" horiz-adv-x="679" 
d="M735 983q57 0 101 -12l-48 -133q-27 10 -75 10q-141 0 -233 -98t-107 -209l-76 -541h-135l92 659q10 64 14 116q4 53 7 75t14 108h133l-25 -178h4q45 84 131 146q90 57 203 57z" />
    <glyph glyph-name="s" unicode="s" horiz-adv-x="872" 
d="M569 860q-82 0 -143 -37q-66 -33 -75 -101t31 -102t136 -55l133 -33q98 -25 156 -94q55 -72 41 -168q-20 -147 -141 -221t-275 -74q-244 0 -342 187l129 80q70 -143 232 -144q91 0 163 41t82 111t-30 105q-40 34 -129 57l-127 30q-238 61 -209 252q18 139 131 215
q117 74 262 74q236 0 297 -172l-133 -80q-45 129 -189 129z" />
    <glyph glyph-name="t" unicode="t" horiz-adv-x="679" 
d="M522 98q72 0 142 37l-11 -125q-86 -35 -186 -35q-99 -1 -161 57t-42 199l84 605h-203l19 122h203l36 271h136l-37 -271h276l-18 -122h-277l-77 -566q-14 -100 16 -136q28 -36 100 -36z" />
    <glyph glyph-name="u" unicode="u" 
d="M557 98q36 0 119 29q55 27 93 59t76 107q38 74 54 174l70 491h135l-107 -747q0 -17 -6 -59l-6 -82q-4 -47 -6 -70h-139q4 84 16 154h-4q-58 -78 -154 -128t-194 -51q-360 0 -307 375l86 608h135l-76 -530q-20 -166 23 -248q49 -82 192 -82z" />
    <glyph glyph-name="v" unicode="v" horiz-adv-x="987" 
d="M1094 958l-525 -958h-151l-254 958h162l190 -806h4l420 806h154z" />
    <glyph glyph-name="w" unicode="w" horiz-adv-x="1478" 
d="M164 958h160l110 -778h4l367 778h139l146 -778h4l331 778h160l-438 -958h-152l-143 786h-4l-365 -786h-151z" />
    <glyph glyph-name="x" unicode="x" horiz-adv-x="987" 
d="M0 0l467 512l-285 446h185l215 -358l305 358h168l-398 -446l330 -512h-184l-262 420l-369 -420h-172z" />
    <glyph glyph-name="y" unicode="y" horiz-adv-x="987" 
d="M125 -369q117 0 205 172l94 185l-256 970h170l188 -792l406 792h164l-650 -1208q-66 -123 -142 -182q-76 -60 -175 -60q-98 0 -141 15l32 131q41 -23 105 -23z" />
    <glyph glyph-name="z" unicode="z" horiz-adv-x="872" 
d="M940 958l-14 -98l-666 -737h582l-17 -123h-778l14 98l664 738h-532l18 122h729z" />
    <glyph glyph-name="braceleft" unicode="{" horiz-adv-x="532" 
d="M639 1499h131l-18 -123h-115q-43 0 -76 -28q-27 -33 -35 -59t-14 -83l-49 -352q-18 -129 -88 -190t-131 -72l-2 -4q59 -10 111 -72t34 -190l-49 -353q-16 -63 -1 -116t81 -54h114l-18 -122h-131q-101 0 -153 61t-31 195l51 364q12 102 -33 166q-47 61 -119 61l19 123
q72 0 137 62q59 63 76 166l51 364q41 256 258 256z" />
    <glyph glyph-name="bar" unicode="|" horiz-adv-x="739" 
d="M414 1706h118v-2273h-118v2273z" />
    <glyph glyph-name="braceright" unicode="}" horiz-adv-x="532" 
d="M59 -319h-131l19 122h114q49 0 75 28t35 57t15 85l50 353q18 129 88 190t131 72l2 4q-59 10 -111 72t-35 190l49 352q16 62 2 116t-81 54h-115l18 123h131q97 0 151 -61t34 -195l-51 -364q-14 -98 30 -166q49 -62 121 -62l-18 -123q-74 0 -138 -61q-63 -63 -75 -166
l-52 -364q-41 -256 -258 -256z" />
    <glyph glyph-name="asciitilde" unicode="~" horiz-adv-x="1363" 
d="M966 481q-69 0 -98 11q-30 4 -76 34t-71 43q-41 31 -103 58q-35 10 -57 10q-106 0 -225 -150l-74 82q47 55 84 89t97 68t129 34t98 -10q29 -4 102 -50q8 -2 76 -49t129 -47q106 0 225 150l74 -82q-47 -55 -84 -90q-113 -101 -226 -101z" />
    <glyph glyph-name="uni00A0" unicode="&#xa0;" horiz-adv-x="569" 
 />
    <glyph glyph-name="exclamdown" unicode="&#xa1;" horiz-adv-x="569" 
d="M394 774q-48 0 -75 33q-26 33 -20 77t41 78t82 34t78 -33q26 -37 20 -79t-42 -76t-84 -34zM145 -467l148 1057h147l-147 -1057h-148z" />
    <glyph glyph-name="cent" unicode="&#xa2;" 
d="M809 858l-107 -758q147 8 236 125l100 -84q-152 -154 -354 -164l-16 -124h-99l19 129q-195 23 -293 157q-93 141 -67 339t163 341q137 135 336 158l18 129h99l-19 -125q199 -8 308 -164l-123 -84q-25 51 -79 87t-122 38zM604 104l107 750q-133 -23 -223 -125
q-90 -101 -112 -249q-21 -148 41 -252t187 -124z" />
    <glyph glyph-name="sterling" unicode="&#xa3;" 
d="M987 809l-18 -123h-344l-80 -563h518l-16 -123h-875l16 123h209l80 563h-196l18 123h197l24 178q70 487 502 488q199 0 301 -123l-111 -105q-80 104 -213 105q-88 0 -155 -37q-110 -69 -154 -223q-14 -50 -24 -117l-23 -166h344z" />
    <glyph glyph-name="currency" unicode="&#xa4;" 
d="M616 338q152 0 281 113q125 119 145 277t-69 271q-94 113 -246 113t-281 -113q-125 -118 -145 -276t70 -272q93 -113 245 -113zM599 215q-165 0 -292 109l-123 -109l-78 90l123 109q-90 147 -63 311q23 176 151 311l-92 109l103 90l92 -109q158 109 322 109t292 -109
l125 109l78 -90l-125 -109q92 -143 68 -314t-156 -308l94 -109l-102 -90l-94 109q-158 -109 -323 -109z" />
    <glyph glyph-name="yen" unicode="&#xa5;" 
d="M225 457h334l23 157l-11 25h-319l14 111h254l-319 700h174l301 -696l498 696h174l-519 -700h252l-14 -111h-319l-19 -25l-22 -157h333l-14 -111h-334l-49 -346h-147l49 346h-334z" />
    <glyph glyph-name="brokenbar" unicode="&#xa6;" horiz-adv-x="737" 
d="M414 397h116v-792h-116v792zM414 1536h116v-797h-116v797z" />
    <glyph glyph-name="section" unicode="&#xa7;" 
d="M612 827l-37 -14q-162 -66 -176 -172q-7 -14 0 -43q7 -28 15 -40t13 -18q5 -8 7 -12t21 -18l24 -18q4 -4 18 -11q15 -8 24 -13t12 -6t17 -9t34 -17l125 -65q67 27 117 75t60 119q10 70 -37 120q-46 50 -128 89zM776 1352q-121 0 -182 -64q-58 -66 -66 -128t25 -103
q37 -41 115 -84l209 -115q186 -102 157 -285q-23 -174 -215 -268q69 -51 93 -110t12 -146q-20 -162 -146 -248t-275 -86q-151 1 -251 59t-131 177l143 65q18 -90 86 -134t162 -44t172 51t93 159t-118 179l-262 138q-172 90 -145 269t250 271q-74 55 -104 109t-19 137
q23 152 137 238q115 86 255 86q140 1 227 -53t110 -140l-129 -61q-51 131 -203 131z" />
    <glyph glyph-name="dieresis" unicode="&#xa8;" horiz-adv-x="491" 
d="M642 1430q46 0 72 -32t20 -74t-42 -71q-31 -33 -77 -33q-45 0 -71 32t-20 74t41 71q31 33 77 33zM249 1430q46 0 70 -33q27 -31 21 -73t-41 -71q-31 -33 -77 -33t-72 32t-19 74q6 42 41 71q31 33 77 33z" />
    <glyph glyph-name="copyright" unicode="&#xa9;" horiz-adv-x="1638" 
d="M828 74q269 0 487 188q213 188 252 464t-123 464q-162 186 -432 186t-484 -187t-254 -465q-41 -278 123 -462q162 -188 431 -188zM1028 1487q317 0 512 -220t150 -538q-31 -217 -160 -391t-320 -277q-190 -98 -397 -98q-315 -1 -511 219t-150 542q45 322 302 543
q257 220 574 220zM887 258q-201 0 -314 131q-104 135 -77 338t168 333t348 130q154 0 248 -81t94 -230h-115q-2 86 -70 143t-172 57q-154 0 -255 -99q-100 -100 -122 -246t56 -259q82 -106 225 -106q102 1 183 59t114 150h117q-55 -148 -170 -234t-258 -86z" />
    <glyph glyph-name="ordfeminine" unicode="&#xaa;" horiz-adv-x="690" 
d="M602 1145q-254 0 -268 -101q-6 -37 26 -57t82 -20q162 0 187 178h-27zM401 868q-90 0 -147 44t-44 133t101 147q96 51 285 51h45q9 74 -18 105q-33 29 -95 28q-102 0 -190 -61l-55 76q101 84 245 84t201 -58q51 -63 43 -127l-41 -280q-2 -6 -8 -129h-111l4 73h-2
q-70 -86 -213 -86z" />
    <glyph glyph-name="guillemotleft" unicode="&#xab;" horiz-adv-x="987" 
d="M981 852l-285 -360l185 -361l-107 -68l-225 429l346 428zM608 852l-284 -360l184 -361l-107 -68l-225 429l346 428z" />
    <glyph glyph-name="logicalnot" unicode="&#xac;" horiz-adv-x="1363" 
d="M1321 836l-80 -570h-123l64 447h-922l16 123h1045z" />
    <glyph glyph-name="uni00AD" unicode="&#xad;" horiz-adv-x="681" 
d="M682 559l-18 -135h-527l19 135h526z" />
    <glyph glyph-name="registered" unicode="&#xae;" horiz-adv-x="1638" 
d="M828 74q269 0 487 188q213 188 252 464t-123 464q-162 186 -432 186t-484 -187t-254 -465q-41 -278 123 -462q162 -188 431 -188zM1028 1487q317 0 512 -220t150 -538q-31 -217 -160 -391t-320 -277q-190 -98 -397 -98q-315 -1 -511 219t-150 542q45 322 302 543
q257 220 574 220zM995 1051h-190l-39 -283h152l90 2q48 8 82 19q68 22 86 124q8 82 -41 111q-53 27 -140 27zM1022 1161q160 0 226 -61t48 -193q-31 -215 -266 -239l199 -389h-133l-189 378h-157l-54 -378h-123l125 882h324z" />
    <glyph glyph-name="macron" unicode="&#xaf;" horiz-adv-x="491" 
d="M711 1339l-17 -110h-553l17 110h553z" />
    <glyph glyph-name="degree" unicode="&#xb0;" horiz-adv-x="819" 
d="M601 1376q-85 0 -154 -59t-81 -145t42 -148q53 -61 138 -61q86 0 154 59t80 145t-39 148q-55 61 -140 61zM532 864q-132 0 -208 86q-74 86 -56 217t117 222q98 86 229 86t209 -86q74 -87 56 -218q-19 -131 -117 -219t-230 -88z" />
    <glyph glyph-name="plusminus" unicode="&#xb1;" horiz-adv-x="1363" 
d="M174 98l16 123h1045l-16 -123h-1045zM260 711l16 123h461l45 319h123l-45 -319h461l-16 -123h-461l-43 -310h-123l43 310h-461z" />
    <glyph glyph-name="uni00B2" unicode="&#xb2;" horiz-adv-x="739" 
d="M570 1364q-62 0 -116 -35t-75 -80l-113 19q35 98 119 153q90 53 204 53q115 0 189 -58q74 -60 59 -161t-124 -223q-61 -51 -109 -90l-301 -240h465l-14 -110h-600l16 117l397 335q16 14 48 43t64 74t34 80q8 49 -36 86t-107 37z" />
    <glyph glyph-name="uni00B3" unicode="&#xb3;" horiz-adv-x="739" 
d="M291 817q31 -127 173 -127q72 0 132 45t68 100t-33 107q-43 47 -166 47h-59l14 111h49q84 0 154 35q61 37 71 97t-28 96t-100 36t-104 -23t-87 -71l-86 67q113 137 289 138q117 0 184 -62q74 -57 57 -164q-8 -68 -65 -125t-131 -77v-5q86 -14 131 -71q42 -59 30 -158
t-109 -167t-224 -66q-225 0 -275 176z" />
    <glyph glyph-name="acute" unicode="&#xb4;" horiz-adv-x="491" 
d="M717 1450l-314 -295h-120l247 295h187z" />
    <glyph glyph-name="mu" unicode="&#xb5;" 
d="M548 98q138 0 230 99q96 96 121 270l70 491h135l-107 -747q-6 -61 -6 -68l-8 -77q0 -33 -4 -66h-145l22 156h-4q-62 -76 -160 -128t-188 -53q-139 0 -217 60l-70 -502h-135l201 1425h135l-76 -530q-24 -178 22 -254t184 -76z" />
    <glyph glyph-name="paragraph" unicode="&#xb6;" horiz-adv-x="1228" 
d="M770 1450h485l-241 -1708h-135l225 1597h-254l-225 -1597h-136l127 905q-186 0 -290 111q-104 106 -82 270q27 198 168 310t358 112z" />
    <glyph glyph-name="periodcentered" unicode="&#xb7;" horiz-adv-x="569" 
d="M360 532q-49 0 -73 33q-29 31 -23 76t42 79t84 34t74 -33t21 -77q-6 -44 -41 -78t-84 -34z" />
    <glyph glyph-name="cedilla" unicode="&#xb8;" horiz-adv-x="491" 
d="M304 -111q50 0 91 -41q39 -44 29 -124t-88 -121q-72 -47 -174 -47t-189 49l43 73q66 -36 132 -36t106 22q43 20 49 70q5 38 -29 65q-59 35 -157 -6l-33 35l152 172h83l-108 -123l2 -2q41 14 91 14z" />
    <glyph glyph-name="uni00B9" unicode="&#xb9;" horiz-adv-x="739" 
d="M666 1462l-121 -870h-123l104 747l-186 -137l-49 78l264 182h111z" />
    <glyph glyph-name="ordmasculine" unicode="&#xba;" horiz-adv-x="788" 
d="M587 1376q-89 0 -157 -59t-79 -147t40 -145q51 -58 138 -58t159 59q68 59 79 145q11 85 -40 145t-140 60zM518 868q-144 0 -227 86q-82 86 -64 218q17 132 123 218t250 85q144 0 227 -86q80 -87 62 -218q-19 -131 -123 -217t-248 -86z" />
    <glyph glyph-name="guillemotright" unicode="&#xbb;" horiz-adv-x="987" 
d="M143 131l287 361l-186 360l106 68l228 -428l-349 -429zM516 131l287 361l-187 360l107 68l227 -428l-348 -429z" />
    <glyph glyph-name="onequarter" unicode="&#xbc;" horiz-adv-x="1708" 
d="M686 1462l-121 -870h-123l105 747l-187 -137l-49 78l264 182h111zM1374 303l62 445h-4l-340 -445h282zM412 -66l-99 66l1137 1516l96 -64zM1577 870l-80 -567h123l-16 -110h-123l-27 -193h-123l27 193h-393l18 126l444 551h150z" />
    <glyph glyph-name="onehalf" unicode="&#xbd;" horiz-adv-x="1708" 
d="M1444 772q-62 0 -116 -34t-75 -81l-112 19q35 98 123 152t202 54t187 -58q74 -60 59 -167q-10 -63 -50 -123t-66 -84t-117 -100l-299 -239h465l-17 -111h-600l16 117l398 336q222 186 110 282q-46 37 -108 37zM635 1462l-121 -870h-123l105 747l-187 -137l-49 78l264 182
h111zM360 -66l-98 66l1137 1516l96 -64z" />
    <glyph glyph-name="threequarters" unicode="&#xbe;" horiz-adv-x="1708" 
d="M487 1100q91 0 153 36t73 109q10 49 -29 84t-100 35q-62 0 -104 -22t-87 -72l-86 67q113 137 289 138q112 1 184 -61t58 -165q-8 -68 -66 -125t-131 -77v-5q86 -14 131 -71q41 -59 33 -142q-16 -119 -113 -182q-92 -68 -223 -67q-225 0 -272 176l112 61q31 -127 183 -127
q63 0 122 46q60 46 68 101t-34 103t-165 49h-59l14 111h49zM1415 303l62 445h-4l-340 -445h282zM494 -66l-99 66l1137 1516l96 -64zM1618 870l-80 -567h123l-16 -110h-123l-27 -193h-123l27 193h-393l18 126l444 551h150z" />
    <glyph glyph-name="questiondown" unicode="&#xbf;" horiz-adv-x="987" 
d="M593 774q-48 0 -75 33q-26 33 -20 77t41 78t84 34t73 -33q29 -31 23 -76t-42 -79t-84 -34zM489 485l15 105h147l-22 -170q-13 -96 -150 -219q-70 -54 -117 -95q-123 -104 -140 -217q-17 -114 42 -180q60 -65 164 -65t181 61t110 162l151 -19q-47 -158 -172 -249
q-128 -91 -292 -91t-263 95q-96 98 -71 264q12 87 45 149t69 94t100 86t87 74q43 31 73 90q35 55 43 125z" />
    <glyph glyph-name="Agrave" unicode="&#xc0;" horiz-adv-x="1404" 
d="M920 1513l-230 295h187l163 -295h-120zM883 1278l-424 -762h628zM385 381l-213 -381h-172l836 1450h143l426 -1450h-172l-107 381h-741z" />
    <glyph glyph-name="Aacute" unicode="&#xc1;" horiz-adv-x="1404" 
d="M1223 1808l-312 -295h-120l245 295h187zM883 1278l-424 -762h628zM385 381l-213 -381h-172l836 1450h143l426 -1450h-172l-107 381h-741z" />
    <glyph glyph-name="Acircumflex" unicode="&#xc2;" horiz-adv-x="1404" 
d="M1038 1808l183 -295h-136l-139 222l-201 -222h-135l264 295h164zM883 1278l-424 -762h628zM385 381l-213 -381h-172l836 1450h143l426 -1450h-172l-107 381h-741z" />
    <glyph glyph-name="Atilde" unicode="&#xc3;" horiz-adv-x="1404" 
d="M805 1751q55 0 143 -47q98 -47 131 -47q74 0 115 102h88q-72 -213 -219 -213q-43 0 -143 47q-84 47 -129 47q-78 0 -115 -102h-88q66 213 217 213zM883 1278l-424 -762h628zM385 381l-213 -381h-172l836 1450h143l426 -1450h-172l-107 381h-741z" />
    <glyph glyph-name="Adieresis" unicode="&#xc4;" horiz-adv-x="1404" 
d="M1151 1788q45 0 70 -32t19 -72t-39 -72q-34 -32 -80 -33q-47 -1 -71 31t-20 71t41 76q35 31 80 31zM758 1788q46 0 70 -32t19 -72t-39 -72t-80 -33q-46 0 -71 31q-54 72 21 147q35 31 80 31zM883 1278l-424 -762h628zM385 381l-213 -381h-172l836 1450h143l426 -1450
h-172l-107 381h-741z" />
    <glyph glyph-name="Aring" unicode="&#xc5;" horiz-adv-x="1404" 
d="M923 1569q48 0 93 35q39 35 47 86t-23 86q-35 34 -83 34t-93 -34q-39 -35 -47 -86t25 -86t81 -35zM914 1495q-82 0 -132 57q-51 54 -39 136q13 82 77 139t146 57t132 -57q51 -53 39 -135q-13 -82 -77 -140t-146 -57zM883 1278l-424 -762h628zM385 381l-213 -381h-172
l836 1450h143l426 -1450h-172l-107 381h-741z" />
    <glyph glyph-name="AE" unicode="&#xc6;" horiz-adv-x="1933" 
d="M598 541h524l109 774h-23zM1378 1315l-69 -494h565l-19 -135h-565l-78 -551h627l-18 -135h-774l57 406h-610l-320 -406h-174l1149 1450h852l-21 -135h-602z" />
    <glyph glyph-name="Ccedilla" unicode="&#xc7;" horiz-adv-x="1441" 
d="M848 -37q-25 0 -41 4l-80 -90l2 -2q41 14 91 14t91 -41q39 -44 29 -124t-88 -121q-70 -47 -173 -47t-190 49l43 73q66 -36 132 -36t106 22q43 20 49 70q5 38 -28 65q-59 35 -158 -6l-33 35l127 145q-272 39 -422 248q-147 209 -104 504q47 332 291 547t571 215
q147 0 271 -57t198 -173l-141 -96q-33 72 -136 133q-104 57 -211 58q-270 0 -458 -184t-226 -444q-38 -261 101 -441q137 -185 409 -185t445 217l108 -86q-93 -117 -247 -191t-328 -75z" />
    <glyph glyph-name="Egrave" unicode="&#xc8;" horiz-adv-x="1214" 
d="M825 1513l-229 295h186l164 -295h-121zM440 686l-78 -551h777l-19 -135h-923l204 1450h899l-20 -135h-752l-69 -494h702l-18 -135h-703z" />
    <glyph glyph-name="Eacute" unicode="&#xc9;" horiz-adv-x="1214" 
d="M1128 1808l-311 -295h-121l246 295h186zM440 686l-78 -551h777l-19 -135h-923l204 1450h899l-20 -135h-752l-69 -494h702l-18 -135h-703z" />
    <glyph glyph-name="Ecircumflex" unicode="&#xca;" horiz-adv-x="1214" 
d="M944 1808l182 -295h-135l-139 222l-201 -222h-135l264 295h164zM440 686l-78 -551h777l-19 -135h-923l204 1450h899l-20 -135h-752l-69 -494h702l-18 -135h-703z" />
    <glyph glyph-name="Edieresis" unicode="&#xcb;" horiz-adv-x="1214" 
d="M1057 1788q45 0 69 -32t20 -72q-5 -40 -39 -72t-80 -33q-46 0 -71 31q-54 72 21 147q35 31 80 31zM664 1788q46 0 70 -32t19 -72t-39 -72t-80 -33q-46 0 -71 31q-54 72 21 147q35 31 80 31zM440 686l-78 -551h777l-19 -135h-923l204 1450h899l-20 -135h-752l-69 -494h702
l-18 -135h-703z" />
    <glyph glyph-name="Igrave" unicode="&#xcc;" horiz-adv-x="540" 
d="M487 1513l-229 295h186l164 -295h-121zM549 1450l-205 -1450h-147l204 1450h148z" />
    <glyph glyph-name="Iacute" unicode="&#xcd;" horiz-adv-x="540" 
d="M791 1808l-312 -295h-121l246 295h187zM549 1450l-205 -1450h-147l204 1450h148z" />
    <glyph glyph-name="Icircumflex" unicode="&#xce;" horiz-adv-x="540" 
d="M606 1808l182 -295h-135l-139 222l-201 -222h-135l264 295h164zM549 1450l-205 -1450h-147l204 1450h148z" />
    <glyph glyph-name="Idieresis" unicode="&#xcf;" horiz-adv-x="540" 
d="M718 1788q46 0 70 -32t20 -72q-5 -40 -40 -72t-80 -33q-45 0 -70 31q-24 32 -20 71t39 73t81 34zM325 1788q47 0 71 -32t19 -72t-40 -72t-80 -33q-45 0 -70 31q-24 32 -20 71t39 73t81 34zM549 1450l-205 -1450h-147l204 1450h148z" />
    <glyph glyph-name="Eth" unicode="&#xd0;" horiz-adv-x="1517" 
d="M629 135q313 0 506 174t226 411t-101 413q-66 86 -185 134t-280 48h-287l-70 -494h529l-15 -110h-528l-82 -576h287zM862 1450q230 0 412 -118t242 -347q27 -129 6 -260q-35 -231 -174 -400q-138 -169 -322 -247t-369 -78h-481l100 711h-149l14 110h150l90 629h481z" />
    <glyph glyph-name="Ntilde" unicode="&#xd1;" horiz-adv-x="1593" 
d="M899 1751q55 0 143 -47q98 -47 132 -47q74 0 114 102h88q-72 -213 -219 -213q-43 0 -143 47q-84 47 -129 47q-78 0 -115 -102h-88q66 213 217 213zM586 1450l690 -1229h4l174 1229h148l-205 -1450h-185l-690 1241h-4l-174 -1241h-147l204 1450h185z" />
    <glyph glyph-name="Ograve" unicode="&#xd2;" horiz-adv-x="1708" 
d="M1071 1513l-229 295h186l164 -295h-121zM461 283q137 -185 407 -185t458 184t226 444q37 261 -100 443q-138 183 -408 183t-458 -184t-226 -444q-38 -261 101 -441zM846 -37q-326 0 -506 217q-184 217 -138 547t290 545t570 215t511 -217q184 -217 138 -547t-292 -545
q-247 -215 -573 -215z" />
    <glyph glyph-name="Oacute" unicode="&#xd3;" horiz-adv-x="1708" 
d="M1374 1808l-311 -295h-121l246 295h186zM461 283q137 -185 407 -185t458 184t226 444q37 261 -100 443q-138 183 -408 183t-458 -184t-226 -444q-38 -261 101 -441zM846 -37q-326 0 -506 217q-184 217 -138 547t290 545t570 215t511 -217q184 -217 138 -547t-292 -545
q-247 -215 -573 -215z" />
    <glyph glyph-name="Ocircumflex" unicode="&#xd4;" horiz-adv-x="1708" 
d="M1190 1808l182 -295h-135l-139 222l-201 -222h-135l264 295h164zM461 283q137 -185 407 -185t458 184t226 444q37 261 -100 443q-138 183 -408 183t-458 -184t-226 -444q-38 -261 101 -441zM846 -37q-326 0 -506 217q-184 217 -138 547t290 545t570 215t511 -217
q184 -217 138 -547t-292 -545q-247 -215 -573 -215z" />
    <glyph glyph-name="Otilde" unicode="&#xd5;" horiz-adv-x="1708" 
d="M956 1751q55 0 144 -47q98 -47 131 -47q74 0 115 102h88q-72 -213 -220 -213q-43 0 -143 47q-84 47 -129 47q-78 0 -115 -102h-88q66 213 217 213zM461 283q137 -185 407 -185t458 184t226 444q37 261 -100 443q-138 183 -408 183t-458 -184t-226 -444q-38 -261 101 -441
zM846 -37q-326 0 -506 217q-184 217 -138 547t290 545t570 215t511 -217q184 -217 138 -547t-292 -545q-247 -215 -573 -215z" />
    <glyph glyph-name="Odieresis" unicode="&#xd6;" horiz-adv-x="1708" 
d="M1303 1788q45 0 69 -32t20 -72q-5 -40 -39 -72t-80 -33q-46 0 -71 31q-54 72 21 147q35 31 80 31zM909 1788q45 0 70 -32t19 -72t-39 -72t-79 -33q-46 0 -71 31q-54 71 20 147q35 31 80 31zM461 283q137 -185 407 -185t458 184t226 444q37 261 -100 443
q-138 183 -408 183t-458 -184t-226 -444q-38 -261 101 -441zM846 -37q-326 0 -506 217q-184 217 -138 547t290 545t570 215t511 -217q184 -217 138 -547t-292 -545q-247 -215 -573 -215z" />
    <glyph glyph-name="multiply" unicode="&#xd7;" horiz-adv-x="1363" 
d="M502 1034l280 -325l369 325l76 -86l-371 -327l279 -326l-101 -88l-276 325l-373 -325l-74 88l373 326l-281 327z" />
    <glyph glyph-name="Oslash" unicode="&#xd8;" horiz-adv-x="1708" 
d="M440 311l969 903q-137 137 -365 138q-270 0 -458 -184t-224 -434q-36 -251 78 -423zM1470 1139l-968 -903q137 -137 366 -138q270 0 458 184t224 431q35 248 -80 426zM848 -37q-281 0 -459 166l-180 -166l-66 70l181 168q-168 211 -122 533t290 538q244 215 571 215
q281 0 461 -166l178 166l65 -70l-178 -168q166 -209 121 -533t-291 -538q-246 -215 -571 -215z" />
    <glyph glyph-name="Ugrave" unicode="&#xd9;" horiz-adv-x="1404" 
d="M920 1513l-230 295h187l163 -295h-120zM698 -37q-253 0 -358 135q-106 143 -100 291q4 102 8 152l129 909h147l-127 -893q-14 -119 0 -209q18 -84 54 -135q35 -41 90 -74q59 -29 94 -33q33 -8 81 -8t84 6t105 35q61 31 111 74q49 51 90 135q43 100 57 209l127 893h148
l-129 -909q-8 -76 -35 -154q-18 -66 -68 -151t-116 -140q-54 -53 -160 -93t-232 -40z" />
    <glyph glyph-name="Uacute" unicode="&#xda;" horiz-adv-x="1404" 
d="M1223 1808l-312 -295h-120l245 295h187zM698 -37q-253 0 -358 135q-106 143 -100 291q4 102 8 152l129 909h147l-127 -893q-14 -119 0 -209q18 -84 54 -135q35 -41 90 -74q59 -29 94 -33q33 -8 81 -8t84 6t105 35q61 31 111 74q49 51 90 135q43 100 57 209l127 893h148
l-129 -909q-8 -76 -35 -154q-18 -66 -68 -151t-116 -140q-54 -53 -160 -93t-232 -40z" />
    <glyph glyph-name="Ucircumflex" unicode="&#xdb;" horiz-adv-x="1404" 
d="M1038 1808l183 -295h-136l-139 222l-201 -222h-135l264 295h164zM698 -37q-253 0 -358 135q-106 143 -100 291q4 102 8 152l129 909h147l-127 -893q-14 -119 0 -209q18 -84 54 -135q35 -41 90 -74q59 -29 94 -33q33 -8 81 -8t84 6t105 35q61 31 111 74q49 51 90 135
q43 100 57 209l127 893h148l-129 -909q-8 -76 -35 -154q-18 -66 -68 -151t-116 -140q-54 -53 -160 -93t-232 -40z" />
    <glyph glyph-name="Udieresis" unicode="&#xdc;" horiz-adv-x="1404" 
d="M1151 1788q45 0 70 -32t19 -72t-39 -72q-34 -32 -80 -33q-47 -1 -71 31t-20 71t41 76q35 31 80 31zM758 1788q46 0 70 -32t19 -72t-39 -72t-80 -33q-46 0 -71 31q-54 72 21 147q35 31 80 31zM698 -37q-253 0 -358 135q-106 143 -100 291q4 102 8 152l129 909h147
l-127 -893q-14 -119 0 -209q18 -84 54 -135q35 -41 90 -74q59 -29 94 -33q33 -8 81 -8t84 6t105 35q61 31 111 74q49 51 90 135q43 100 57 209l127 893h148l-129 -909q-8 -76 -35 -154q-18 -66 -68 -151t-116 -140q-54 -53 -160 -93t-232 -40z" />
    <glyph glyph-name="Yacute" unicode="&#xdd;" horiz-adv-x="1175" 
d="M1108 1808l-311 -295h-121l246 295h186zM750 625l-88 -625h-148l88 625l-426 825h184l336 -684l529 684h184z" />
    <glyph glyph-name="Thorn" unicode="&#xde;" horiz-adv-x="1175" 
d="M651 489q129 0 237 38q60 21 101 79q39 49 49 127q18 140 -51 201q-23 20 -78 41q-67 16 -93 18t-95 2h-238l-69 -506h237zM831 1130q187 0 291 -100t76 -290t-156 -285q-131 -100 -321 -101h-328l-49 -354h-147l204 1450h148l-45 -320h327z" />
    <glyph glyph-name="germandbls" unicode="&#xdf;" horiz-adv-x="1214" 
d="M825 1573q169 0 267 -97t73 -266q-35 -240 -282 -325l-2 -4q172 -16 241 -136q74 -117 49 -288q-31 -215 -184 -351q-154 -131 -369 -131q-61 0 -116 17l16 117q45 -10 98 -11q162 0 275 96t133 265q29 182 -70 270q-90 88 -290 88l18 123q135 0 225 60q91 60 107 186
t-44 194q-60 70 -169 70q-150 0 -234 -100t-102 -224l-158 -1126h-135l156 1114q27 199 147 332q123 127 350 127z" />
    <glyph glyph-name="agrave" unicode="&#xe0;" horiz-adv-x="1062" 
d="M698 1155l-227 295h186l162 -295h-121zM760 477q-449 0 -475 -203q-12 -88 47 -132t153 -44q141 0 228 86q84 88 106 224l10 69h-69zM776 588h68l4 24q33 248 -211 248q-170 0 -309 -112l-68 96q158 139 424 139q152 0 239 -87t64 -253l-59 -428q-14 -94 -15 -215h-131
q-4 82 11 156h-5q-137 -180 -364 -181q-137 0 -223 74q-84 74 -66 207q12 88 62 154q53 66 112 98q151 80 467 80z" />
    <glyph glyph-name="aacute" unicode="&#xe1;" horiz-adv-x="1062" 
d="M1004 1450l-314 -295h-121l248 295h187zM760 477q-449 0 -475 -203q-12 -88 47 -132t153 -44q141 0 228 86q84 88 106 224l10 69h-69zM776 588h68l4 24q33 248 -211 248q-170 0 -309 -112l-68 96q158 139 424 139q152 0 239 -87t64 -253l-59 -428q-14 -94 -15 -215h-131
q-4 82 11 156h-5q-137 -180 -364 -181q-137 0 -223 74q-84 74 -66 207q12 88 62 154q53 66 112 98q151 80 467 80z" />
    <glyph glyph-name="acircumflex" unicode="&#xe2;" horiz-adv-x="1062" 
d="M819 1450l180 -295h-135l-139 221l-201 -221h-135l266 295h164zM760 477q-449 0 -475 -203q-12 -88 47 -132t153 -44q141 0 228 86q84 88 106 224l10 69h-69zM776 588h68l4 24q33 248 -211 248q-170 0 -309 -112l-68 96q158 139 424 139q152 0 239 -87t64 -253l-59 -428
q-14 -94 -15 -215h-131q-4 82 11 156h-5q-137 -180 -364 -181q-137 0 -223 74q-84 74 -66 207q12 88 62 154q53 66 112 98q151 80 467 80z" />
    <glyph glyph-name="atilde" unicode="&#xe3;" horiz-adv-x="1062" 
d="M586 1393q53 0 141 -47q100 -47 131 -48q78 0 115 103h88q-66 -213 -217 -213q-45 0 -144 47q-88 47 -131 47q-77 0 -114 -102h-88q66 213 219 213zM760 477q-449 0 -475 -203q-12 -88 47 -132t153 -44q141 0 228 86q84 88 106 224l10 69h-69zM776 588h68l4 24
q33 248 -211 248q-170 0 -309 -112l-68 96q158 139 424 139q152 0 239 -87t64 -253l-59 -428q-14 -94 -15 -215h-131q-4 82 11 156h-5q-137 -180 -364 -181q-137 0 -223 74q-84 74 -66 207q12 88 62 154q53 66 112 98q151 80 467 80z" />
    <glyph glyph-name="adieresis" unicode="&#xe4;" horiz-adv-x="1062" 
d="M929 1430q46 0 70 -33q27 -31 21 -73t-41 -71q-31 -33 -77 -33t-72 32t-19 74q6 42 41 71q31 33 77 33zM536 1430q46 0 70 -33q27 -31 21 -73t-41 -71q-31 -33 -77 -33q-45 0 -71 32t-20 74t41 71q31 33 77 33zM760 477q-449 0 -475 -203q-12 -88 47 -132t153 -44
q141 0 228 86q84 88 106 224l10 69h-69zM776 588h68l4 24q33 248 -211 248q-170 0 -309 -112l-68 96q158 139 424 139q152 0 239 -87t64 -253l-59 -428q-14 -94 -15 -215h-131q-4 82 11 156h-5q-137 -180 -364 -181q-137 0 -223 74q-84 74 -66 207q12 88 62 154
q53 66 112 98q151 80 467 80z" />
    <glyph glyph-name="aring" unicode="&#xe5;" horiz-adv-x="1062" 
d="M737 1452q-51 0 -91 -34t-48 -87t23 -87t81 -34t93 35q41 35 47 86q8 51 -23 86t-82 35zM694 1137q-80 0 -133 55q-47 57 -39 139q12 80 79 137q67 58 147 58t130 -56t39 -137q-10 -80 -77 -141q-66 -55 -146 -55zM760 477q-449 0 -475 -203q-12 -88 47 -132t153 -44
q141 0 228 86q84 88 106 224l10 69h-69zM776 588h68l4 24q33 248 -211 248q-170 0 -309 -112l-68 96q158 139 424 139q152 0 239 -87t64 -253l-59 -428q-14 -94 -15 -215h-131q-4 82 11 156h-5q-137 -180 -364 -181q-137 0 -223 74q-84 74 -66 207q12 88 62 154
q53 66 112 98q151 80 467 80z" />
    <glyph glyph-name="ae" unicode="&#xe6;" horiz-adv-x="1744" 
d="M1342 860q-128 0 -224 -88q-94 -92 -112 -219h583q18 135 -49 221q-70 86 -198 86zM573 442q-109 0 -190 -41q-86 -37 -98 -126t47 -133t153 -44q143 0 246 90q106 97 123 254h-281zM1208 -25q-116 1 -204 57t-121 167q-90 -121 -197 -170q-104 -53 -252 -53t-233 73
q-84 74 -66 207q39 297 508 297h227l9 59q8 70 -14 124q-21 54 -59 79q-68 45 -138 45q-168 0 -308 -115l-69 99q170 139 399 139q111 0 191 -53q80 -49 102 -131q57 82 159 133t208 51q207 -4 301 -135t67 -344l-10 -62h-719l-2 -18q-18 -135 45 -231q66 -95 185 -95
t189 40t136 116l96 -84q-182 -195 -430 -195z" />
    <glyph glyph-name="ccedilla" unicode="&#xe7;" horiz-adv-x="987" 
d="M594 -111q50 0 90 -41q39 -44 29 -122t-86 -124t-177 -46t-188 49l43 73q63 -36 129 -36q146 1 158 92q2 12 -2 33q-8 20 -29 32q-48 39 -155 -6l-33 35l137 156q-190 28 -282 162t-61 343t189 353t380 140q222 -3 335 -165l-123 -84q-29 57 -86 90q-59 37 -135 37
q-164 4 -276 -106q-113 -102 -138 -274t60 -275q80 -111 248 -107q75 0 143 35t113 92l100 -84q-162 -162 -375 -166q-12 0 -14 2l-88 -100l2 -2q42 14 92 14z" />
    <glyph glyph-name="egrave" unicode="&#xe8;" 
d="M735 1155l-227 295h186l162 -295h-121zM708 860q-138 0 -254 -96t-130 -211h647q18 139 -53 223q-72 84 -210 84zM590 -25q-215 1 -335 145t-89 358t190 362q160 143 367 142t312 -138t77 -340l-10 -62h-799q-8 -143 78 -243t227 -101q100 0 188 47t142 119l92 -86
q-186 -203 -440 -203z" />
    <glyph glyph-name="eacute" unicode="&#xe9;" 
d="M1040 1450l-313 -295h-121l248 295h186zM708 860q-138 0 -254 -96t-130 -211h647q18 139 -53 223q-72 84 -210 84zM590 -25q-215 1 -335 145t-89 358t190 362q160 143 367 142t312 -138t77 -340l-10 -62h-799q-8 -143 78 -243t227 -101q100 0 188 47t142 119l92 -86
q-186 -203 -440 -203z" />
    <glyph glyph-name="ecircumflex" unicode="&#xea;" 
d="M856 1450l180 -295h-135l-139 221l-201 -221h-135l266 295h164zM708 860q-138 0 -254 -96t-130 -211h647q18 139 -53 223q-72 84 -210 84zM590 -25q-215 1 -335 145t-89 358t190 362q160 143 367 142t312 -138t77 -340l-10 -62h-799q-8 -143 78 -243t227 -101
q100 0 188 47t142 119l92 -86q-186 -203 -440 -203z" />
    <glyph glyph-name="edieresis" unicode="&#xeb;" 
d="M966 1430q46 0 70 -33q27 -31 21 -73t-41 -71q-31 -33 -77 -33q-45 0 -71 32t-20 74t41 71q31 33 77 33zM572 1430q46 0 72 -32t20 -74t-41 -71q-31 -33 -77 -33t-72 32t-19 74q6 42 41 71q30 33 76 33zM708 860q-138 0 -254 -96t-130 -211h647q18 139 -53 223
q-72 84 -210 84zM590 -25q-215 1 -335 145t-89 358t190 362q160 143 367 142t312 -138t77 -340l-10 -62h-799q-8 -143 78 -243t227 -101q100 0 188 47t142 119l92 -86q-186 -203 -440 -203z" />
    <glyph glyph-name="igrave" unicode="&#xec;" horiz-adv-x="491" 
d="M412 1155l-228 295h187l161 -295h-120zM449 958l-136 -958h-135l135 958h136z" />
    <glyph glyph-name="iacute" unicode="&#xed;" horiz-adv-x="491" 
d="M717 1450l-314 -295h-120l247 295h187zM449 958l-136 -958h-135l135 958h136z" />
    <glyph glyph-name="icircumflex" unicode="&#xee;" horiz-adv-x="491" 
d="M532 1450l181 -295h-135l-140 221l-200 -221h-136l267 295h163zM449 958l-136 -958h-135l135 958h136z" />
    <glyph glyph-name="idieresis" unicode="&#xef;" horiz-adv-x="491" 
d="M642 1430q46 0 72 -32t20 -74t-42 -71q-31 -33 -77 -33q-45 0 -71 32t-20 74t41 71q31 33 77 33zM249 1430q46 0 70 -33q27 -31 21 -73t-41 -71q-31 -33 -77 -33t-72 32t-19 74q6 42 41 71q31 33 77 33zM449 958l-136 -958h-135l135 958h136z" />
    <glyph glyph-name="eth" unicode="&#xf0;" horiz-adv-x="1214" 
d="M743 983q166 0 291 -119l6 4q-98 248 -268 418l-242 -117l-63 74l238 115q-96 102 -173 162l134 75q94 -84 176 -170l223 109l72 -72l-226 -110q172 -201 243 -400t36 -432q-16 -108 -54 -192t-104 -172q-149 -179 -430 -181q-221 -1 -344 143t-92 361q32 217 192 361
t385 143zM622 98q162 0 276 108t138 272t-61 274q-84 108 -247 108q-164 0 -278 -108t-137 -273t61 -273t248 -108z" />
    <glyph glyph-name="ntilde" unicode="&#xf1;" 
d="M623 1393q53 0 141 -47q100 -47 131 -48q78 0 115 103h88q-66 -213 -217 -213q-45 0 -144 47q-88 47 -131 47q-77 0 -114 -102h-89q66 213 220 213zM745 983q178 0 259 -98q76 -98 51 -277l-86 -608h-135l73 530q25 170 -22 248q-43 82 -191 82q-39 0 -116 -29
q-53 -25 -95 -57q-101 -96 -131 -282l-69 -492h-136l105 748q12 104 20 210h140q-4 -84 -17 -153h4q55 76 153 127t193 51z" />
    <glyph glyph-name="ograve" unicode="&#xf2;" horiz-adv-x="1214" 
d="M774 1155l-227 295h186l162 -295h-121zM622 98q163 0 276 108t137 272q24 165 -60 274q-84 108 -247 108q-164 0 -278 -108t-137 -273t61 -273t248 -108zM742 983q224 1 348 -143t94 -360q-31 -216 -194 -360t-386 -144t-346 142q-123 144 -92 361q32 217 192 361
t384 143z" />
    <glyph glyph-name="oacute" unicode="&#xf3;" horiz-adv-x="1214" 
d="M1079 1450l-313 -295h-121l248 295h186zM622 98q163 0 276 108t137 272q24 165 -60 274q-84 108 -247 108q-164 0 -278 -108t-137 -273t61 -273t248 -108zM742 983q224 1 348 -143t94 -360q-31 -216 -194 -360t-386 -144t-346 142q-123 144 -92 361q32 217 192 361
t384 143z" />
    <glyph glyph-name="ocircumflex" unicode="&#xf4;" horiz-adv-x="1214" 
d="M895 1450l180 -295h-135l-139 221l-201 -221h-135l266 295h164zM622 98q163 0 276 108t137 272q24 165 -60 274q-84 108 -247 108q-164 0 -278 -108t-137 -273t61 -273t248 -108zM742 983q224 1 348 -143t94 -360q-31 -216 -194 -360t-386 -144t-346 142
q-123 144 -92 361q32 217 192 361t384 143z" />
    <glyph glyph-name="otilde" unicode="&#xf5;" horiz-adv-x="1214" 
d="M662 1393q53 0 141 -47q100 -47 131 -48q78 0 115 103h88q-66 -213 -217 -213q-45 0 -144 47q-88 47 -131 47q-78 0 -115 -102h-88q66 213 220 213zM622 98q163 0 276 108t137 272q24 165 -60 274q-84 108 -247 108q-164 0 -278 -108t-137 -273t61 -273t248 -108z
M742 983q224 1 348 -143t94 -360q-31 -216 -194 -360t-386 -144t-346 142q-123 144 -92 361q32 217 192 361t384 143z" />
    <glyph glyph-name="odieresis" unicode="&#xf6;" horiz-adv-x="1214" 
d="M1006 1430q44 0 70 -32t20 -72t-40 -73t-79 -33t-71 32t-19 72q6 40 39 73q35 33 80 33zM612 1430q45 0 71 -32q25 -32 19 -72t-40 -73t-78 -33t-70 32t-20 72t38 73q35 33 80 33zM622 98q163 0 276 108t137 272q24 165 -60 274q-84 108 -247 108q-164 0 -278 -108
t-137 -273t61 -273t248 -108zM742 983q224 1 348 -143t94 -360q-31 -216 -194 -360t-386 -144t-346 142q-123 144 -92 361q32 217 192 361t384 143z" />
    <glyph glyph-name="divide" unicode="&#xf7;" horiz-adv-x="1363" 
d="M708 178q-48 0 -75 33t-21 77t41 78t84 34t74 -33q29 -31 23 -76t-42 -79t-84 -34zM830 1063q48 0 75 -33t21 -77t-41 -78q-35 -33 -82 -33t-78 32q-27 37 -21 79t43 76q35 34 83 34zM1300 682l-18 -123h-1044l18 123h1044z" />
    <glyph glyph-name="oslash" unicode="&#xf8;" horiz-adv-x="1214" 
d="M726 983q208 0 329 -106l155 139l56 -64l-154 -139q98 -135 70 -342t-192 -351q-162 -144 -370 -144t-323 106l-158 -139l-57 63l156 139q-98 139 -70 345t190 350q160 144 368 143zM714 860q-150 0 -264 -108t-134 -260t34 -246l598 534q-84 80 -234 80zM635 98
q149 0 263 108t135 256t-34 251l-598 -537q84 -78 234 -78z" />
    <glyph glyph-name="ugrave" unicode="&#xf9;" 
d="M735 1155l-227 295h186l162 -295h-121zM557 98q36 0 119 29q55 27 93 59t76 107q38 74 54 174l70 491h135l-107 -747q0 -17 -6 -59l-6 -82q-4 -47 -6 -70h-139q4 84 16 154h-4q-58 -78 -154 -128t-194 -51q-360 0 -307 375l86 608h135l-76 -530q-20 -166 23 -248
q49 -82 192 -82z" />
    <glyph glyph-name="uacute" unicode="&#xfa;" 
d="M1040 1450l-313 -295h-121l248 295h186zM557 98q36 0 119 29q55 27 93 59t76 107q38 74 54 174l70 491h135l-107 -747q0 -17 -6 -59l-6 -82q-4 -47 -6 -70h-139q4 84 16 154h-4q-58 -78 -154 -128t-194 -51q-360 0 -307 375l86 608h135l-76 -530q-20 -166 23 -248
q49 -82 192 -82z" />
    <glyph glyph-name="ucircumflex" unicode="&#xfb;" 
d="M856 1450l180 -295h-135l-139 221l-201 -221h-135l266 295h164zM557 98q36 0 119 29q55 27 93 59t76 107q38 74 54 174l70 491h135l-107 -747q0 -17 -6 -59l-6 -82q-4 -47 -6 -70h-139q4 84 16 154h-4q-58 -78 -154 -128t-194 -51q-360 0 -307 375l86 608h135l-76 -530
q-20 -166 23 -248q49 -82 192 -82z" />
    <glyph glyph-name="udieresis" unicode="&#xfc;" 
d="M966 1430q46 0 70 -33q27 -31 21 -73t-41 -71q-31 -33 -77 -33q-45 0 -71 32t-20 74t41 71q31 33 77 33zM572 1430q46 0 72 -32t20 -74t-41 -71q-31 -33 -77 -33t-72 32t-19 74q6 42 41 71q30 33 76 33zM557 98q36 0 119 29q55 27 93 59t76 107q38 74 54 174l70 491h135
l-107 -747q0 -17 -6 -59l-6 -82q-4 -47 -6 -70h-139q4 84 16 154h-4q-58 -78 -154 -128t-194 -51q-360 0 -307 375l86 608h135l-76 -530q-20 -166 23 -248q49 -82 192 -82z" />
    <glyph glyph-name="yacute" unicode="&#xfd;" horiz-adv-x="987" 
d="M965 1450l-314 -295h-121l248 295h187zM125 -369q117 0 205 172l94 185l-256 970h170l188 -792l406 792h164l-650 -1208q-66 -123 -142 -182q-76 -60 -175 -60q-98 0 -141 15l32 131q41 -23 105 -23z" />
    <glyph glyph-name="thorn" unicode="&#xfe;" horiz-adv-x="1251" 
d="M670 98q168 0 282 108t137 272q23 165 -61 274q-84 108 -249 108t-287 -110q-127 -106 -149 -270q-21 -164 69 -274q90 -108 258 -108zM796 983q224 0 348 -143q124 -144 93 -360t-194 -360t-388 -145q-102 1 -198 47t-148 138h-4l-88 -627h-135l283 2015h135l-107 -768
h4q175 203 399 203z" />
    <glyph glyph-name="ydieresis" unicode="&#xff;" horiz-adv-x="987" 
d="M891 1430q45 0 71 -32t20 -72t-41 -73q-34 -33 -79 -33q-44 0 -70 32t-20 72t39 73q35 33 80 33zM498 1430q44 0 70 -32t20 -72t-40 -73t-79 -33t-71 32t-19 72q6 40 39 73q35 33 80 33zM125 -369q117 0 205 172l94 185l-256 970h170l188 -792l406 792h164l-650 -1208
q-66 -123 -142 -182q-76 -60 -175 -60q-98 0 -141 15l32 131q41 -23 105 -23z" />
    <glyph glyph-name="uni2010" unicode="&#x2010;" horiz-adv-x="681" 
d="M682 559l-18 -135h-527l19 135h526z" />
    <glyph glyph-name="endash" unicode="&#x2013;" horiz-adv-x="1024" 
d="M1102 559l-19 -135h-1024l19 135h1024z" />
    <glyph glyph-name="emdash" unicode="&#x2014;" horiz-adv-x="2048" 
d="M2126 559l-19 -135h-2048l19 135h2048z" />
    <glyph glyph-name="quoteleft" unicode="&#x2018;" horiz-adv-x="532" 
d="M250 969l235 481h138l-207 -481h-166z" />
    <glyph glyph-name="quoteright" unicode="&#x2019;" horiz-adv-x="532" 
d="M623 1450l-236 -481h-137l207 481h166z" />
    <glyph glyph-name="quotesinglbase" unicode="&#x201a;" horiz-adv-x="532" 
d="M444 195l-233 -482h-137l205 482h165z" />
    <glyph glyph-name="quotedblleft" unicode="&#x201c;" horiz-adv-x="1062" 
d="M700 969l236 481h137l-207 -481h-166zM330 969l235 481h137l-206 -481h-166z" />
    <glyph glyph-name="quotedblright" unicode="&#x201d;" horiz-adv-x="1062" 
d="M702 1450l-235 -481h-137l207 481h165zM1073 1450l-235 -481h-138l207 481h166z" />
    <glyph glyph-name="quotedblbase" unicode="&#x201e;" horiz-adv-x="1062" 
d="M524 195l-233 -482h-137l204 482h166zM895 195l-233 -482h-138l205 482h166z" />
    <glyph glyph-name="dagger" unicode="&#x2020;" 
d="M842 1450l-60 -418h418l-18 -123h-418l-164 -1167h-135l164 1167h-418l18 123h418l60 418h135z" />
    <glyph glyph-name="daggerdbl" unicode="&#x2021;" 
d="M842 1450l-56 -393h400l-19 -123h-399l-94 -676h399l-18 -123h-400l-55 -393h-135l55 393h-399l18 123h400l94 676h-400l19 123h399l56 393h135z" />
    <glyph glyph-name="bullet" unicode="&#x2022;" horiz-adv-x="1024" 
d="M668 1087q152 1 240 -107t69 -255q-20 -147 -143 -258q-121 -105 -273 -105q-153 0 -241 108t-68 255t143 258q121 104 273 104z" />
    <glyph glyph-name="ellipsis" unicode="&#x2026;" horiz-adv-x="2048" 
d="M1733 209q47 0 77 -33q27 -37 21 -79t-42 -76q-36 -33 -84 -33t-75 32q-26 32 -20 77q6 44 41 78t82 34zM1053 209q49 0 73 -33q29 -31 23 -76t-42 -79q-36 -33 -84 -33t-75 32q-26 32 -20 77q6 44 41 78t84 34zM369 209q47 0 77 -33q27 -37 21 -79t-42 -76
q-36 -33 -84 -33t-75 32q-26 32 -20 77q6 44 41 78t82 34z" />
    <glyph glyph-name="perthousand" unicode="&#x2030;" horiz-adv-x="2048" 
d="M1382 1458l-1134 -1521l-101 55l1139 1521zM1697 86q83 0 151 60t79 145q12 86 -40 145q-52 60 -135 60t-150 -62q-68 -57 -80 -143q-12 -85 40 -145t135 -60zM1768 606q130 0 209 -94t61 -222t-125 -220q-103 -94 -233 -94t-209 94t-61 222t126 220q102 94 232 94z
M980 86q82 0 150 60t80 145q12 86 -40 145q-52 60 -135 60t-150 -62q-68 -57 -80 -143q-12 -85 40 -145t135 -60zM1052 606q130 0 208 -94t61 -222q-18 -128 -125 -220q-102 -94 -232 -94t-209 94t-61 222t125 220q103 94 233 94zM556 1364q-83 0 -150 -61q-70 -57 -81 -143
t40 -144q49 -62 133 -62t153 62q68 57 80 143q10 85 -41 145t-134 60zM484 844q-130 0 -210 94q-78 94 -59 221q14 129 121 221q102 94 234 94t208 -94q80 -90 63 -220t-124 -222q-103 -94 -233 -94z" />
    <glyph glyph-name="guilsinglleft" unicode="&#x2039;" horiz-adv-x="645" 
d="M338 492l184 -361l-106 -68l-226 429l347 428l86 -68z" />
    <glyph glyph-name="guilsinglright" unicode="&#x203a;" horiz-adv-x="645" 
d="M446 492l-186 360l107 68l227 -428l-348 -429l-86 68z" />
    <glyph glyph-name="fraction" unicode="&#x2044;" horiz-adv-x="344" 
d="M-244 -66l-98 66l1137 1516l96 -64z" />
  </font>
</defs>
</svg>
