<?xml version="1.0" encoding="UTF-8" standalone="no"?>
<svg width="12px" height="15px" viewBox="0 0 12 15" version="1.1" xmlns="http://www.w3.org/2000/svg" xmlns:xlink="http://www.w3.org/1999/xlink">
    <!-- Generator: Sketch 39.1 (31720) - http://www.bohemiancoding.com/sketch -->
    <title>clipboard</title>
    <desc>Created with Sketch.</desc>
    <defs></defs>
    <g id="Page-1" stroke="none" stroke-width="1" fill="none" fill-rule="evenodd">
        <path d="M2.95898438,7.05664062 L8.84765625,7.05664062 L8.84765625,6.58789062 L2.95898438,6.58789062 L2.95898438,7.05664062 Z M2.95898438,9.04882812 L8.84765625,9.04882812 L8.84765625,8.55078125 L2.95898438,8.55078125 L2.95898438,9.04882812 Z M2.95898438,11.0117188 L6.88476562,11.0117188 L6.88476562,10.5136719 L2.95898438,10.5136719 L2.95898438,11.0117188 Z M7.35351562,1.66601562 C7.33398428,1.4902335 7.28027388,1.32910229 7.19238281,1.18261719 C7.10449175,1.03613208 6.99218818,0.904297461 6.85546875,0.787109375 C6.71874932,0.669921289 6.57226641,0.582031543 6.41601562,0.5234375 C6.25976484,0.464843457 6.08398535,0.435546875 5.88867188,0.435546875 C5.71288975,0.435546875 5.54199302,0.464843457 5.37597656,0.5234375 C5.20996011,0.582031543 5.06835996,0.669921289 4.95117188,0.787109375 C4.81445244,0.904297461 4.70214888,1.03613208 4.61425781,1.18261719 C4.52636675,1.32910229 4.47265635,1.4902335 4.453125,1.66601562 L0,1.66601562 L0,14.4394531 L11.8066406,14.4394531 L11.8066406,8 L11.8066406,6 L11.8066406,3 L11.8066406,1.66601562 M4.921875,2.77929688 L4.921875,1.90039062 C4.921875,1.76367119 4.94628882,1.63671934 4.99511719,1.51953125 C5.04394556,1.40234316 5.11718701,1.29492236 5.21484375,1.19726562 C5.29296914,1.11914023 5.39062441,1.05566431 5.5078125,1.00683594 C5.62500059,0.958007568 5.75195244,0.93359375 5.88867188,0.93359375 C6.02539131,0.93359375 6.15722593,0.958007568 6.28417969,1.00683594 C6.41113345,1.05566431 6.51367148,1.11914023 6.59179688,1.19726562 C6.68945361,1.29492236 6.76269507,1.40234316 6.81152344,1.51953125 C6.86035181,1.63671934 6.88476562,1.76367119 6.88476562,1.90039062 L6.88476562,2.77929688 L7.11914062,2.92578125 C7.25586006,3.00390664 7.37792915,3.08203086 7.48535156,3.16015625 C7.59277397,3.23828164 7.68554648,3.33593691 7.76367188,3.453125 C7.86132861,3.55078174 7.9443356,3.65331978 8.01269531,3.76074219 C8.08105503,3.8681646 8.14453096,3.99023369 8.203125,4.12695312 L3.60351562,4.12695312 C3.66210967,3.99023369 3.7255856,3.8681646 3.79394531,3.76074219 C3.86230503,3.65331978 3.94531201,3.55078174 4.04296875,3.453125 C4.12109414,3.33593691 4.21386665,3.23828164 4.32128906,3.16015625 C4.42871147,3.08203086 4.54101504,3.00390664 4.65820312,2.92578125 L4.921875,2.77929688 Z M11.3085938,13.9414062 L0.498046875,13.9414062 L0.498046875,2.1640625 L4.42382812,2.1640625 L4.42382812,2.515625 C4.22851465,2.61328174 4.04785239,2.73535083 3.88183594,2.88183594 C3.71581948,3.02832104 3.57421934,3.19921777 3.45703125,3.39453125 C3.32031182,3.57031338 3.21289102,3.76074116 3.13476562,3.96582031 C3.05664023,4.17089946 2.99804707,4.3808583 2.95898438,4.59570312 L8.84765625,4.59570312 C8.80859355,4.3808583 8.74511763,4.17089946 8.65722656,3.96582031 C8.5693355,3.76074116 8.46679746,3.57031338 8.34960938,3.39453125 C8.21288994,3.19921777 8.06640703,3.02832104 7.91015625,2.88183594 C7.75390547,2.73535083 7.57812598,2.61328174 7.3828125,2.515625 L7.3828125,2.1640625 L11.3085938,2.1640625 L11.3085938,13.9414062 Z" id="clipboard" fill="#000000"></path>
    </g>
</svg>