<?xml version="1.0" encoding="UTF-8" standalone="no"?>
<svg width="18px" height="15px" viewBox="0 0 18 15" version="1.1" xmlns="http://www.w3.org/2000/svg" xmlns:xlink="http://www.w3.org/1999/xlink">
    <!-- Generator: Sketch 40.1 (33804) - http://www.bohemiancoding.com/sketch -->
    <title>Mask</title>
    <desc>Created with Sketch.</desc>
    <defs></defs>
    <g id="Page-1" stroke="none" stroke-width="1" fill="none" fill-rule="evenodd">
        <g id="icons26" transform="translate(-290.000000, -31.000000)" fill="#737373">
            <g transform="translate(1.000000, 1.000000)" id="Mask">
                <path d="M294,30 L307,30 L307,33 L294,33 L294,30 Z M294,36 L307,36 L307,39 L294,39 L294,36 Z M294,42 L307,42 L307,45 L294,45 L294,42 Z M289,30 L292,30 L292,33 L289,33 L289,30 Z M289,36 L292,36 L292,39 L289,39 L289,36 Z M289,42 L292,42 L292,45 L289,45 L289,42 Z"></path>
            </g>
        </g>
    </g>
</svg>