<?xml version="1.0" encoding="UTF-8" standalone="no"?>
<svg width="25px" height="26px" viewBox="0 0 25 26" version="1.1" xmlns="http://www.w3.org/2000/svg" xmlns:xlink="http://www.w3.org/1999/xlink">
    <!-- Generator: Sketch 40.1 (33804) - http://www.bohemiancoding.com/sketch -->
    <title>Blue Badge</title>
    <desc>Created with Sketch.</desc>
    <defs></defs>
    <g id="Logos" stroke="none" stroke-width="1" fill="none" fill-rule="evenodd">
        <g id="Badges" transform="translate(0.000000, -4.000000)">
            <g id="Blue-Badge" transform="translate(0.000000, 4.000000)">
                <path d="M0.883838384,0.141388889 L24.0737374,0.141388889 C24.5621212,0.141388889 24.9575758,0.53709596 24.9575758,1.02522727 L24.9575758,24.2151263 C24.9575758,24.7035101 24.5621212,25.0989646 24.0737374,25.0989646 L0.883838384,25.0989646 C0.395454545,25.0989646 0,24.7035101 0,24.2151263 L0,1.02522727 C0,0.53709596 0.395454545,0.141388889 0.883838384,0.141388889" id="Fill-1" fill="#0076FF"></path>
                <path d="M6.13161616,14.8750253 L6.13161616,7.87224747 C6.13161616,7.80204545 6.07505051,7.74598485 6.00535354,7.74598485 L4.91949495,7.87224747 C4.84954545,7.87224747 4.79323232,7.92830808 4.79323232,7.9985101 L4.79323232,15.9025505 C4.79323232,16.1818434 5.01949495,16.407601 5.29828283,16.407601 L9.27580808,16.407601 C9.34575758,16.407601 9.40207071,16.3515404 9.40207071,16.2813384 L9.65459596,15.2538131 C9.65459596,15.1843687 9.59828283,15.1275505 9.52833333,15.1275505 L6.38414141,15.1275505 C6.24474747,15.1275505 6.13161616,15.0149242 6.13161616,14.8750253" id="Fill-3" fill="#FFFFFF"></path>
                <path d="M16.5140152,17.5734091 L17.9890152,12.4335101 C18.007702,12.3663384 18.0385101,12.3660859 18.0574495,12.4332576 L19.1486111,16.2731566 C19.1675505,16.3403283 19.2395202,16.3946212 19.3089646,16.3946212 L20.922601,16.3946212 C20.9920455,16.3946212 21.0488636,16.337803 21.0488636,16.2683586 L20.7963384,15.2582576 C20.7963384,15.1885606 20.7395202,15.1319949 20.6700758,15.1319949 L20.2632576,15.1319949 C20.1935606,15.1319949 20.1213384,15.077702 20.102399,15.0105303 L18.6604798,9.9355303 C18.6412879,9.86861111 18.5695707,9.81431818 18.4993687,9.81431818 L17.5369949,9.94234848 C17.4667929,9.94260101 17.3953283,9.99714646 17.3766414,10.0640657 L15.9357323,15.0827525 C15.9170455,15.1499242 15.8877525,15.1496717 15.8705808,15.0819949 L13.9897727,7.55472222 C13.9723485,7.48704545 13.9021465,7.43224747 13.8324495,7.43224747 L12.8609848,7.56002525 C12.7912879,7.56002525 12.7208333,7.61507576 12.7039141,7.68275253 L10.8647727,15.0095202 C10.8481061,15.077197 10.7776515,15.1319949 10.7079545,15.1319949 L10.3165404,15.1319949 C10.2468434,15.1319949 10.1902778,15.1885606 10.1902778,15.2582576 L9.93775253,16.2683586 C9.93775253,16.337803 9.99431818,16.3946212 10.0640152,16.3946212 L11.692803,16.3946212 C11.7625,16.3946212 11.8329545,16.3398232 11.8498737,16.2721465 L13.3200758,10.4145707 C13.3369949,10.3468939 13.3645202,10.3468939 13.3819444,10.4145707 L15.2291667,17.6837626 C15.2460859,17.7516919 15.3167929,17.8072475 15.3864899,17.8080051 L16.3536616,17.6936111 C16.4236111,17.6943687 16.4953283,17.6405808 16.5140152,17.5734091" id="Fill-5" fill="#FFFFFF"></path>
            </g>
        </g>
    </g>
</svg>