<?xml version="1.0" encoding="UTF-8" standalone="no"?>
<svg width="223px" height="26px" viewBox="0 0 223 26" version="1.1" xmlns="http://www.w3.org/2000/svg" xmlns:xlink="http://www.w3.org/1999/xlink">
    <!-- Generator: Sketch 40.1 (33804) - http://www.bohemiancoding.com/sketch -->
    <title>Group 2</title>
    <desc>Created with Sketch.</desc>
    <defs>
        <polygon id="path-1" points="0.0415 17.9939665 21.9319 17.9939665 21.9319 0.0514860335 0.0415 0.0514860335 0.0415 17.9939665"></polygon>
    </defs>
    <g id="V1" stroke="none" stroke-width="1" fill="none" fill-rule="evenodd">
        <g id="test-2-copy-2" transform="translate(-24.000000, -21.000000)">
            <g id="app-bar">
                <g id="Group-2" transform="translate(24.000000, 21.000000)">
                    <path d="M147.82,6.84 L149.74,6.84 L149.74,21 L147.82,21 L147.82,6.84 Z M163.24,9.9 C162.839998,9.3799974 162.333336,8.9800014 161.72,8.7 C161.106664,8.4199986 160.473337,8.28 159.82,8.28 C159.019996,8.28 158.29667,8.4299985 157.65,8.73 C157.00333,9.0300015 156.450002,9.4399974 155.99,9.96 C155.529998,10.4800026 155.173335,11.0899965 154.92,11.79 C154.666665,12.4900035 154.54,13.239996 154.54,14.04 C154.54,14.7866704 154.659999,15.49333 154.9,16.16 C155.140001,16.82667 155.486664,17.4133308 155.94,17.92 C156.393336,18.4266692 156.946663,18.8266652 157.6,19.12 C158.253337,19.4133348 158.993329,19.56 159.82,19.56 C160.633337,19.56 161.346664,19.393335 161.96,19.06 C162.573336,18.726665 163.093331,18.260003 163.52,17.66 L165.14,18.88 C165.033333,19.0266674 164.846668,19.2366653 164.58,19.51 C164.313332,19.7833347 163.960002,20.0566653 163.52,20.33 C163.079998,20.6033347 162.550003,20.8433323 161.93,21.05 C161.309997,21.2566677 160.593337,21.36 159.78,21.36 C158.659994,21.36 157.650004,21.1466688 156.75,20.72 C155.849995,20.2933312 155.083336,19.7333368 154.45,19.04 C153.816663,18.3466632 153.333335,17.5633377 153,16.69 C152.666665,15.8166623 152.5,14.9333378 152.5,14.04 C152.5,12.9466612 152.679998,11.9366713 153.04,11.01 C153.400002,10.0833287 153.90333,9.2833367 154.55,8.61 C155.19667,7.9366633 155.973329,7.4133352 156.88,7.04 C157.786671,6.6666648 158.786661,6.48 159.88,6.48 C160.813338,6.48 161.729995,6.6599982 162.63,7.02 C163.530004,7.3800018 164.266664,7.9333296 164.84,8.68 L163.24,9.9 Z M167.46,6.84 L172.44,6.84 C173.346671,6.84 174.09333,6.9633321 174.68,7.21 C175.26667,7.4566679 175.729998,7.7699981 176.07,8.15 C176.410002,8.5300019 176.646666,8.9566643 176.78,9.43 C176.913334,9.9033357 176.98,10.3599978 176.98,10.8 C176.98,11.2400022 176.913334,11.6966643 176.78,12.17 C176.646666,12.6433357 176.410002,13.0699981 176.07,13.45 C175.729998,13.8300019 175.26667,14.1433321 174.68,14.39 C174.09333,14.6366679 173.346671,14.76 172.44,14.76 L169.38,14.76 L169.38,21 L167.46,21 L167.46,6.84 Z M169.38,13.08 L171.9,13.08 C172.273335,13.08 172.643331,13.0500003 173.01,12.99 C173.376668,12.9299997 173.703332,12.8200008 173.99,12.66 C174.276668,12.4999992 174.506666,12.2700015 174.68,11.97 C174.853334,11.6699985 174.94,11.2800024 174.94,10.8 C174.94,10.3199976 174.853334,9.9300015 174.68,9.63 C174.506666,9.3299985 174.276668,9.1000008 173.99,8.94 C173.703332,8.7799992 173.376668,8.6700003 173.01,8.61 C172.643331,8.5499997 172.273335,8.52 171.9,8.52 L169.38,8.52 L169.38,13.08 Z M184.42,5.88 L186.22,5.88 L186.22,12.88 L186.26,12.88 C186.580002,12.3866642 187.039997,11.9966681 187.64,11.71 C188.240003,11.4233319 188.879997,11.28 189.56,11.28 C190.293337,11.28 190.956664,11.4066654 191.55,11.66 C192.143336,11.9133346 192.649998,12.2633311 193.07,12.71 C193.490002,13.1566689 193.813332,13.6833303 194.04,14.29 C194.266668,14.8966697 194.38,15.5533298 194.38,16.26 C194.38,16.9666702 194.266668,17.619997 194.04,18.22 C193.813332,18.820003 193.490002,19.3466644 193.07,19.8 C192.649998,20.2533356 192.143336,20.6066654 191.55,20.86 C190.956664,21.1133346 190.293337,21.24 189.56,21.24 C188.919997,21.24 188.29667,21.1000014 187.69,20.82 C187.08333,20.5399986 186.606668,20.1466692 186.26,19.64 L186.22,19.64 L186.22,21 L184.42,21 L184.42,5.88 Z M189.34,19.56 C189.820002,19.56 190.253331,19.4766675 190.64,19.31 C191.026669,19.1433325 191.353332,18.9166681 191.62,18.63 C191.886668,18.3433319 192.093333,17.9966687 192.24,17.59 C192.386667,17.1833313 192.46,16.7400024 192.46,16.26 C192.46,15.7799976 192.386667,15.3366687 192.24,14.93 C192.093333,14.5233313 191.886668,14.1766681 191.62,13.89 C191.353332,13.6033319 191.026669,13.3766675 190.64,13.21 C190.253331,13.0433325 189.820002,12.96 189.34,12.96 C188.859998,12.96 188.426669,13.0433325 188.04,13.21 C187.653331,13.3766675 187.326668,13.6033319 187.06,13.89 C186.793332,14.1766681 186.586667,14.5233313 186.44,14.93 C186.293333,15.3366687 186.22,15.7799976 186.22,16.26 C186.22,16.7400024 186.293333,17.1833313 186.44,17.59 C186.586667,17.9966687 186.793332,18.3433319 187.06,18.63 C187.326668,18.9166681 187.653331,19.1433325 188.04,19.31 C188.426669,19.4766675 188.859998,19.56 189.34,19.56 L189.34,19.56 Z M198,16.92 C198,17.3333354 198.089999,17.7099983 198.27,18.05 C198.450001,18.3900017 198.686665,18.6799988 198.98,18.92 C199.273335,19.1600012 199.613331,19.346666 200,19.48 C200.386669,19.613334 200.786665,19.68 201.2,19.68 C201.760003,19.68 202.246665,19.5500013 202.66,19.29 C203.073335,19.0299987 203.453332,18.6866688 203.8,18.26 L205.16,19.3 C204.159995,20.5933398 202.760009,21.24 200.96,21.24 C200.21333,21.24 199.53667,21.1133346 198.93,20.86 C198.32333,20.6066654 197.810002,20.2566689 197.39,19.81 C196.969998,19.3633311 196.646668,18.8366697 196.42,18.23 C196.193332,17.6233303 196.08,16.9666702 196.08,16.26 C196.08,15.5533298 196.203332,14.8966697 196.45,14.29 C196.696668,13.6833303 197.036664,13.1566689 197.47,12.71 C197.903335,12.2633311 198.419997,11.9133346 199.02,11.66 C199.620003,11.4066654 200.27333,11.28 200.98,11.28 C201.820004,11.28 202.529997,11.4266652 203.11,11.72 C203.690003,12.0133348 204.166665,12.3966643 204.54,12.87 C204.913335,13.3433357 205.183332,13.8766637 205.35,14.47 C205.516667,15.0633363 205.6,15.6666636 205.6,16.28 L205.6,16.92 L198,16.92 Z M203.68,15.48 C203.666667,15.079998 203.603334,14.713335 203.49,14.38 C203.376666,14.046665 203.206668,13.7566679 202.98,13.51 C202.753332,13.2633321 202.470002,13.0700007 202.13,12.93 C201.789998,12.7899993 201.393336,12.72 200.94,12.72 C200.499998,12.72 200.096668,12.8033325 199.73,12.97 C199.363331,13.1366675 199.053335,13.353332 198.8,13.62 C198.546665,13.886668 198.350001,14.1833317 198.21,14.51 C198.069999,14.8366683 198,15.1599984 198,15.48 L203.68,15.48 Z M212.84,13.08 L210.26,13.08 L210.26,17.38 C210.26,17.646668 210.266667,17.9099987 210.28,18.17 C210.293333,18.4300013 210.343333,18.6633323 210.43,18.87 C210.516667,19.0766677 210.649999,19.2433327 210.83,19.37 C211.010001,19.4966673 211.273332,19.56 211.62,19.56 C211.833334,19.56 212.053332,19.5400002 212.28,19.5 C212.506668,19.4599998 212.713332,19.3866672 212.9,19.28 L212.9,20.92 C212.686666,21.0400006 212.410002,21.1233331 212.07,21.17 C211.729998,21.2166669 211.466668,21.24 211.28,21.24 C210.586663,21.24 210.050002,21.1433343 209.67,20.95 C209.289998,20.7566657 209.010001,20.5066682 208.83,20.2 C208.649999,19.8933318 208.543333,19.5500019 208.51,19.17 C208.476666,18.7899981 208.46,18.4066686 208.46,18.02 L208.46,13.08 L206.38,13.08 L206.38,11.52 L208.46,11.52 L208.46,8.86 L210.26,8.86 L210.26,11.52 L212.84,11.52 L212.84,13.08 Z M215.2,12.68 C215.706669,12.213331 216.29333,11.8633345 216.96,11.63 C217.62667,11.3966655 218.29333,11.28 218.96,11.28 C219.653337,11.28 220.249997,11.3666658 220.75,11.54 C221.250002,11.7133342 221.659998,11.9466652 221.98,12.24 C222.300002,12.5333348 222.536666,12.8699981 222.69,13.25 C222.843334,13.6300019 222.92,14.0266646 222.92,14.44 L222.92,19.28 C222.92,19.613335 222.926667,19.9199986 222.94,20.2 C222.953333,20.4800014 222.973333,20.7466654 223,21 L221.4,21 C221.36,20.5199976 221.34,20.0400024 221.34,19.56 L221.3,19.56 C220.899998,20.1733364 220.426669,20.6066654 219.88,20.86 C219.333331,21.1133346 218.700004,21.24 217.98,21.24 C217.539998,21.24 217.120002,21.1800006 216.72,21.06 C216.319998,20.9399994 215.970001,20.7600012 215.67,20.52 C215.369998,20.2799988 215.133334,19.9833351 214.96,19.63 C214.786666,19.2766649 214.7,18.866669 214.7,18.4 C214.7,17.7866636 214.836665,17.2733354 215.11,16.86 C215.383335,16.4466646 215.756664,16.1100013 216.23,15.85 C216.703336,15.5899987 217.256663,15.4033339 217.89,15.29 C218.523336,15.1766661 219.199996,15.12 219.92,15.12 L221.24,15.12 L221.24,14.72 C221.24,14.4799988 221.193334,14.2400012 221.1,14 C221.006666,13.7599988 220.866668,13.5433343 220.68,13.35 C220.493332,13.1566657 220.260001,13.0033339 219.98,12.89 C219.699999,12.7766661 219.366669,12.72 218.98,12.72 C218.633332,12.72 218.330001,12.753333 218.07,12.82 C217.809999,12.886667 217.573334,12.9699995 217.36,13.07 C217.146666,13.1700005 216.953334,13.286666 216.78,13.42 C216.606666,13.553334 216.440001,13.6799994 216.28,13.8 L215.2,12.68 Z M220.28,16.44 C219.853331,16.44 219.416669,16.4633331 218.97,16.51 C218.523331,16.5566669 218.116668,16.646666 217.75,16.78 C217.383331,16.913334 217.083334,17.0999988 216.85,17.34 C216.616665,17.5800012 216.5,17.8866648 216.5,18.26 C216.5,18.8066694 216.683331,19.1999988 217.05,19.44 C217.416668,19.6800012 217.91333,19.8 218.54,19.8 C219.033336,19.8 219.453332,19.7166675 219.8,19.55 C220.146668,19.3833325 220.426666,19.166668 220.64,18.9 C220.853334,18.633332 221.006666,18.3366683 221.1,18.01 C221.193334,17.6833317 221.24,17.3600016 221.24,17.04 L221.24,16.44 L220.28,16.44 Z" id="ICP-beta-Copy" fill="#FFFFFF"></path>
                    <path d="M134.5,0.5 L134.5,24.5" id="Line" stroke="#FFFFFF" stroke-linecap="square"></path>
                    <g id="LogicMonitor-logo-white" transform="translate(0.000000, 3.000000)">
                        <path d="M93.7114665,0 L91.2884165,0.229018272 C91.1291732,0.229018272 91,0.331124187 91,0.458036544 L91,2.77098173 C91,2.89742954 91.1291732,3 91.2884165,3 L93.7114665,2.77098173 C93.8708268,2.77098173 94,2.66841127 94,2.54196346 L94,0.229018272 C94,0.102013007 93.8708268,0 93.7114665,0" id="Fill-1" fill="#FFFFFF"></path>
                        <path d="M75.499805,13.3131553 C75.499805,14.9235702 74.6822685,15.7060119 73.0002925,15.7060119 C71.3177315,15.7060119 70.500195,14.9235702 70.500195,13.3131553 L70.500195,9.68684474 C70.500195,8.07703025 71.3177315,7.29398815 73.0002925,7.29398815 C74.6822685,7.29398815 75.499805,8.07703025 75.499805,9.68684474 L75.499805,13.3131553 M73.0002925,5 C69.8227826,5 68,6.73500115 68,9.76079594 L68,13.2393041 C68,16.2649988 69.8227826,18 73.0002925,18 C76.1770224,18 78,16.2649988 78,13.2393041 L78,9.76079594 C78,6.73500115 76.1770224,5 73.0002925,5" id="Fill-2" fill="#FFFFFF"></path>
                        <path d="M87.0856945,5 C85.6379184,5 83.6855355,5.59580528 82.346814,6.1950787 L82.2068776,5.45503978 C82.1839455,5.33712317 82.0805985,5.25143983 81.9602307,5.25143983 L80.2512332,5.50287965 C80.1125199,5.50287965 80,5.61488003 80,5.75442148 L80,17.7485602 C80,17.8879996 80.1125199,18 80.2512332,18 L82.3618982,18 C82.5007134,18 82.6132333,17.8879996 82.6132333,17.7485602 L82.6132333,8.6492946 C83.844531,8.03696468 85.6032655,7.51439825 86.4576624,7.51439825 C87.1270741,7.51439825 87.3873782,7.7612479 87.3873782,8.39448865 L87.3873782,17.7485602 C87.3873782,17.8879996 87.4992866,18 87.6387134,18 L89.7486648,18 C89.8879897,18 90,17.8879996 90,17.7485602 L90,8.36898765 C90,6.13346829 89.0192221,5 87.0856945,5" id="Fill-3" fill="#FFFFFF"></path>
                        <path d="M121.732312,5.00665632 C120.22697,5.06947533 118.837591,5.38669056 117.495897,5.96287822 L117.346338,5.20905003 C117.322496,5.08809223 117.211952,5 117.082985,5 L115.266605,5.25647631 C115.119214,5.25647631 115,5.37129782 115,5.51274461 L115,17.7437317 C115,17.8851785 115.119214,18 115.266605,18 L117.51107,18 C117.659545,18 117.778758,17.8851785 117.778758,17.7437317 L117.778758,8.46523833 C118.975228,7.89425092 120.665893,7.54458614 121.732312,7.44494936 C121.879703,7.43163672 122,7.31619118 122,7.17453638 L122,5.25647631 C122,5.11482151 121.879703,5 121.732312,5.00665632" id="Fill-4" fill="#FFFFFF"></path>
                        <path d="M93.7114665,5 L91.2884165,5.25143983 C91.1291732,5.25143983 91,5.3633382 91,5.50287965 L91,17.7485602 C91,17.8879996 91.1291732,18 91.2884165,18 L93.7114665,18 C93.8708268,18 94,17.8879996 94,17.7485602 L94,5.25143983 C94,5.11189837 93.8708268,5 93.7114665,5" id="Fill-5" fill="#FFFFFF"></path>
                        <path d="M102.621725,15.5002769 C102.564517,15.4623766 102.493501,15.4520765 102.428403,15.4680766 C101.657087,15.6703785 101.10819,15.7563793 100.592829,15.7563793 C99.694966,15.7563793 99.6196098,15.4912768 99.6196098,14.6720693 L99.6196098,7.47320286 L102.561558,7.47320286 C102.686823,7.47320286 102.791375,7.37700197 102.804197,7.25110081 L102.973847,5.52558488 C102.980752,5.45628424 102.958066,5.38758361 102.912694,5.33558313 C102.866337,5.28358265 102.801238,5.25468238 102.732195,5.25468238 L99.6196098,5.25468238 L99.6196098,2.24655462 C99.6196098,2.17515396 99.5892306,2.10715334 99.5359684,2.0602529 C99.4829035,2.01345247 99.4112954,1.99225228 99.3422517,2.00255237 L97.2996456,2.2983551 C97.1800029,2.31585526 97.0906407,2.41985622 97.0906407,2.54305736 L97.0906407,5.25468238 L95.2430335,5.25468238 C95.1088916,5.25468238 95,5.36438339 95,5.50118466 L95,7.22680058 C95,7.36280184 95.1088916,7.47320286 95.2430335,7.47320286 L97.0906407,7.47320286 L97.0906407,15.0168725 C97.0906407,17.0794915 98.0734273,18 100.276806,18 C101.132947,18 102.043731,17.8368985 102.839706,17.5410958 C102.950175,17.4998954 103.01626,17.3856943 102.996533,17.2682932 L102.728249,15.6658785 C102.7174,15.5978778 102.678933,15.5380773 102.621725,15.5002769" id="Fill-6" fill="#FFFFFF"></path>
                        <path d="M111.5,13.3131553 C111.5,14.9235702 110.681942,15.7060119 109,15.7060119 C107.317083,15.7060119 106.499025,14.9235702 106.499025,13.3131553 L106.499025,9.68684474 C106.499025,8.07703025 107.317083,7.29398815 109,7.29398815 C110.681942,7.29398815 111.5,8.07703025 111.5,9.68684474 L111.5,13.3131553 M109,5 C105.822348,5 104,6.73500115 104,9.76079594 L104,13.2393041 C104,16.2649988 105.822348,18 109,18 C112.176677,18 114,16.2649988 114,13.2393041 L114,9.76079594 C114,6.73500115 112.176677,5 109,5" id="Fill-7" fill="#FFFFFF"></path>
                        <path d="M57.9754512,20.5255192 L60.8681048,10.1219807 C60.9050742,9.98690349 60.9651494,9.98628149 61.0025206,10.1219807 L63.1423248,17.8935347 C63.1797965,18.0293376 63.3209432,18.1391202 63.4577701,18.1391202 L66.7522649,18.1391202 C66.8890918,18.1391202 67,18.0246726 67,17.8835827 L66.5047308,15.8390753 C66.5047308,15.6980891 66.3937221,15.5836415 66.2570961,15.5836415 L65.3284412,15.5836415 C65.1917148,15.5836415 65.0504676,15.4738588 65.0129959,15.3380559 L62.1849383,5.06689934 C62.147567,4.93120011 62.0067217,4.82141746 61.8696939,4.82141746 L59.9816432,5.08037596 C59.8449167,5.08099796 59.70377,5.19150627 59.6673029,5.3272055 L56.8409531,15.4844328 C56.8041846,15.6202357 56.7468218,15.6196137 56.7133685,15.4831888 L53.0244666,0.248280867 C52.9910134,0.111130309 52.8521772,0 52.7155513,0 L50.8102214,0.258854833 C50.6733945,0.258854833 50.5354625,0.369985141 50.5022101,0.507135699 L46.8952838,15.3360863 C46.8623329,15.4725111 46.6476492,15.5836415 46.5109228,15.5836415 L45.7428034,15.5836415 C45.6064788,15.5836415 45.4951688,15.6980891 45.4951688,15.8390753 L45,17.8835827 C45,18.0246726 45.1111091,18.1391202 45.2476346,18.1391202 L48.519124,18.1391202 C48.6559509,18.1391202 48.7938829,18.0279899 48.8273362,17.891565 L51.7108479,6.03597222 C51.7438993,5.89954732 51.7981479,5.89954732 51.8321035,6.03597222 L55.4551034,20.7498531 C55.4889585,20.886278 55.6268905,20.9986523 55.7639183,21 L57.6610104,20.7684094 C57.7976364,20.7697571 57.9385822,20.6612184 57.9754512,20.5255192" id="Fill-8" fill="#FFFFFF"></path>
                        <path d="M35.7115497,0 L33.2884503,0.229018272 C33.1288372,0.229018272 33,0.331124187 33,0.458036544 L33,2.77098173 C33,2.89742954 33.1288372,3 33.2884503,3 L35.7115497,2.77098173 C35.8706947,2.77098173 36,2.66841127 36,2.54196346 L36,0.229018272 C36,0.102013007 35.8706947,0 35.7115497,0" id="Fill-9" fill="#FFFFFF"></path>
                        <path d="M2.36695229,1 L0.24655753,1.24778997 C0.110125696,1.24778997 0,1.35816456 0,1.49568045 L0,17.0087396 C0,17.5560891 0.441503017,18 0.98623012,18 L8.75344247,18 C8.8898743,18 9,17.8890223 9,17.7523106 L9,15.8433729 C9,15.7065606 8.8898743,15.5955829 8.75344247,15.5955829 L3.10662488,15.5955829 C2.8345614,15.5955829 2.61350982,15.3743311 2.61350982,15.100003 L2.61350982,1.24778997 C2.61350982,1.11047512 2.50308405,1 2.36695229,1" id="Fill-10" fill="#FFFFFF"></path>
                        <g id="Group-14" transform="translate(10.000000, 5.000000)">
                            <mask id="mask-2" fill="white">
                                <use xlink:href="#path-1"></use>
                            </mask>
                            <g id="Clip-12"></g>
                            <path d="M5.1692,0.0514860335 C1.9103,0.0514860335 0.0415,1.79567598 0.0415,4.83626816 L0.0415,8.33178771 C0.0415,11.3722793 1.9103,13.1164693 5.1692,13.1164693 C8.4279,13.1164693 10.2967,11.3722793 10.2967,8.33178771 L10.2967,4.83626816 C10.2967,1.79567598 8.4279,0.0514860335 5.1692,0.0514860335 M5.1692,10.8105587 C3.4439,10.8105587 2.6051,10.0242905 2.6051,8.406 L2.6051,4.76135196 C2.6051,3.14426816 3.4439,2.35739665 5.1692,2.35739665 C6.8943,2.35739665 7.7328,3.14426816 7.7328,4.76135196 L7.7328,8.406 C7.7328,10.0242905 6.8943,10.8105587 5.1692,10.8105587" id="Fill-11" fill="#FFFFFF" mask="url(#mask-2)"></path>
                            <path d="M16.2125,0.0521899441 C12.8951,0.0521899441 11.2821,1.48716201 11.2821,4.43986592 L11.2821,4.98469274 C11.2821,6.54687151 11.8021,7.73084916 12.7904,8.43506145 C12.1725,9.0167933 11.8244,9.76675978 11.8244,10.5382458 C11.8244,11.5587151 12.2697,12.8136872 14.3911,12.9912737 C15.2676,13.0687039 15.7695,13.1171732 16.3471,13.1719777 C16.6947,13.2054637 17.0697,13.2423687 17.5713,13.2889274 C18.9975,13.4148268 19.1217,13.5781341 19.1217,14.355352 C19.1217,15.3429385 19.1217,15.7934413 16.0151,15.7934413 C14.8476,15.7934413 13.3297,15.6063017 12.0532,15.3042235 C12.0348,15.3003017 12.016,15.2982905 11.9972,15.2982905 C11.9497,15.2982905 11.9024,15.3119665 11.862,15.3384134 C11.8053,15.3758212 11.7663,15.4345475 11.7544,15.5017207 L11.4587,17.1375084 C11.4356,17.2640112 11.5129,17.3873966 11.6365,17.4208827 C13.0077,17.7965698 14.9416,18 16.0647,18 C20.3289,18 21.5621,17.1601341 21.5621,14.2565028 C21.5621,12.283743 20.5961,11.3426145 18.332,11.1096201 C17.5612,11.0332961 17.0173,10.976581 16.5008,10.9222793 C16.0095,10.8712961 15.5427,10.8229274 14.9285,10.7621899 C14.4016,10.7138212 14.3635,10.5614749 14.3635,10.314905 C14.3635,9.94042458 14.6861,9.59892737 15.0553,9.28518436 C15.4053,9.32711732 15.7943,9.34793296 16.2125,9.34793296 C19.4077,9.34793296 21.1675,7.7986257 21.1675,4.98469274 L21.1675,4.43343017 C21.144,3.53996648 20.9721,2.79432402 20.6557,2.21148603 L21.7311,2.00624581 C21.8477,1.98351955 21.9319,1.88165363 21.9319,1.76218994 L21.9319,0.547944134 C21.9319,0.410379888 21.8215,0.300067039 21.6853,0.300067039 L18.2697,0.300067039 C17.6483,0.117351955 16.7773,0.0521899441 16.2125,0.0521899441 M16.2125,7.14207821 C14.3043,7.14207821 13.7225,6.63787709 13.7225,4.98469274 L13.7225,4.46440223 C13.7225,2.81493855 14.3507,2.25804469 16.2125,2.25804469 C18.0509,2.25804469 18.7024,2.83575419 18.7024,4.46440223 L18.7024,4.98469274 C18.7024,6.49719553 17.9579,7.14207821 16.2125,7.14207821" id="Fill-13" fill="#FFFFFF" mask="url(#mask-2)"></path>
                        </g>
                        <path d="M35.7115497,5 L33.2884503,5.25143983 C33.1288372,5.25143983 33,5.3633382 33,5.50287965 L33,17.7485602 C33,17.8879996 33.1288372,18 33.2884503,18 L35.7115497,18 C35.8706947,18 36,17.8879996 36,17.7485602 L36,5.25143983 C36,5.11189837 35.8706947,5 35.7115497,5" id="Fill-15" fill="#FFFFFF"></path>
                        <path d="M44.3168248,15.4690771 C43.553208,15.4644869 42.7786979,15.4644869 41.9941775,15.4644869 C40.0760577,15.4644869 39.5210837,14.9721137 39.5210837,13.2132589 L39.5210837,9.63608116 C39.5210837,7.87732844 40.0760577,7.36853255 41.9941775,7.36853255 C42.8703593,7.36853255 43.4598782,7.45748003 44.295725,7.64027117 C44.3627537,7.65516376 44.433021,7.63955715 44.4884693,7.59630746 C44.5442121,7.55438382 44.5798364,7.48950928 44.5865098,7.41882052 L44.9987903,5.65486559 C45.0101744,5.53694898 44.9402015,5.42556063 44.8314639,5.38965523 C44.152737,5.1637164 42.9389583,5 41.9451082,5 C38.4792438,5 37,6.40908306 37,9.71207413 L37,13.5669068 C37,16.0146964 37.5606661,18 41.9064416,18 C42.5150975,18 43.2022642,18 43.7068932,17.9795992 C43.8409505,17.973785 43.9718675,17.8225131 44.0050384,17.6876638 L44.4951428,15.6643127 C44.5279211,15.5293615 44.4510785,15.4697911 44.3168248,15.4690771" id="Fill-16" fill="#FFFFFF"></path>
                    </g>
                </g>
            </g>
        </g>
    </g>
</svg>