<?xml version="1.0" encoding="UTF-8" standalone="no"?>
<svg width="122px" height="23px" viewBox="0 0 122 23" version="1.1" xmlns="http://www.w3.org/2000/svg" xmlns:xlink="http://www.w3.org/1999/xlink">
    <!-- Generator: Sketch 40.1 (33804) - http://www.bohemiancoding.com/sketch -->
    <title>LogicMonitor logo white</title>
    <desc>Created with Sketch.</desc>
    <defs>
        <polygon id="path-1" points="0.0415 17.9939665 21.9319 17.9939665 21.9319 0.0514860335 0.0415 0.0514860335 0.0415 17.9939665"></polygon>
    </defs>
    <g id="V1" stroke="none" stroke-width="1" fill="none" fill-rule="evenodd">
        <g id="test-2-copy-2" transform="translate(-24.000000, -24.000000)">
            <g id="app-bar">
                <g id="LogicMonitor-logo-white" transform="translate(24.000000, 24.000000)">
                    <path d="M93.7114665,0 L91.2884165,0.229018272 C91.1291732,0.229018272 91,0.331124187 91,0.458036544 L91,2.77098173 C91,2.89742954 91.1291732,3 91.2884165,3 L93.7114665,2.77098173 C93.8708268,2.77098173 94,2.66841127 94,2.54196346 L94,0.229018272 C94,0.102013007 93.8708268,0 93.7114665,0" id="Fill-1" fill="#FFFFFF"></path>
                    <path d="M75.499805,13.3131553 C75.499805,14.9235702 74.6822685,15.7060119 73.0002925,15.7060119 C71.3177315,15.7060119 70.500195,14.9235702 70.500195,13.3131553 L70.500195,9.68684474 C70.500195,8.07703025 71.3177315,7.29398815 73.0002925,7.29398815 C74.6822685,7.29398815 75.499805,8.07703025 75.499805,9.68684474 L75.499805,13.3131553 M73.0002925,5 C69.8227826,5 68,6.73500115 68,9.76079594 L68,13.2393041 C68,16.2649988 69.8227826,18 73.0002925,18 C76.1770224,18 78,16.2649988 78,13.2393041 L78,9.76079594 C78,6.73500115 76.1770224,5 73.0002925,5" id="Fill-2" fill="#FFFFFF"></path>
                    <path d="M87.0856945,5 C85.6379184,5 83.6855355,5.59580528 82.346814,6.1950787 L82.2068776,5.45503978 C82.1839455,5.33712317 82.0805985,5.25143983 81.9602307,5.25143983 L80.2512332,5.50287965 C80.1125199,5.50287965 80,5.61488003 80,5.75442148 L80,17.7485602 C80,17.8879996 80.1125199,18 80.2512332,18 L82.3618982,18 C82.5007134,18 82.6132333,17.8879996 82.6132333,17.7485602 L82.6132333,8.6492946 C83.844531,8.03696468 85.6032655,7.51439825 86.4576624,7.51439825 C87.1270741,7.51439825 87.3873782,7.7612479 87.3873782,8.39448865 L87.3873782,17.7485602 C87.3873782,17.8879996 87.4992866,18 87.6387134,18 L89.7486648,18 C89.8879897,18 90,17.8879996 90,17.7485602 L90,8.36898765 C90,6.13346829 89.0192221,5 87.0856945,5" id="Fill-3" fill="#FFFFFF"></path>
                    <path d="M121.732312,5.00665632 C120.22697,5.06947533 118.837591,5.38669056 117.495897,5.96287822 L117.346338,5.20905003 C117.322496,5.08809223 117.211952,5 117.082985,5 L115.266605,5.25647631 C115.119214,5.25647631 115,5.37129782 115,5.51274461 L115,17.7437317 C115,17.8851785 115.119214,18 115.266605,18 L117.51107,18 C117.659545,18 117.778758,17.8851785 117.778758,17.7437317 L117.778758,8.46523833 C118.975228,7.89425092 120.665893,7.54458614 121.732312,7.44494936 C121.879703,7.43163672 122,7.31619118 122,7.17453638 L122,5.25647631 C122,5.11482151 121.879703,5 121.732312,5.00665632" id="Fill-4" fill="#FFFFFF"></path>
                    <path d="M93.7114665,5 L91.2884165,5.25143983 C91.1291732,5.25143983 91,5.3633382 91,5.50287965 L91,17.7485602 C91,17.8879996 91.1291732,18 91.2884165,18 L93.7114665,18 C93.8708268,18 94,17.8879996 94,17.7485602 L94,5.25143983 C94,5.11189837 93.8708268,5 93.7114665,5" id="Fill-5" fill="#FFFFFF"></path>
                    <path d="M102.621725,15.5002769 C102.564517,15.4623766 102.493501,15.4520765 102.428403,15.4680766 C101.657087,15.6703785 101.10819,15.7563793 100.592829,15.7563793 C99.694966,15.7563793 99.6196098,15.4912768 99.6196098,14.6720693 L99.6196098,7.47320286 L102.561558,7.47320286 C102.686823,7.47320286 102.791375,7.37700197 102.804197,7.25110081 L102.973847,5.52558488 C102.980752,5.45628424 102.958066,5.38758361 102.912694,5.33558313 C102.866337,5.28358265 102.801238,5.25468238 102.732195,5.25468238 L99.6196098,5.25468238 L99.6196098,2.24655462 C99.6196098,2.17515396 99.5892306,2.10715334 99.5359684,2.0602529 C99.4829035,2.01345247 99.4112954,1.99225228 99.3422517,2.00255237 L97.2996456,2.2983551 C97.1800029,2.31585526 97.0906407,2.41985622 97.0906407,2.54305736 L97.0906407,5.25468238 L95.2430335,5.25468238 C95.1088916,5.25468238 95,5.36438339 95,5.50118466 L95,7.22680058 C95,7.36280184 95.1088916,7.47320286 95.2430335,7.47320286 L97.0906407,7.47320286 L97.0906407,15.0168725 C97.0906407,17.0794915 98.0734273,18 100.276806,18 C101.132947,18 102.043731,17.8368985 102.839706,17.5410958 C102.950175,17.4998954 103.01626,17.3856943 102.996533,17.2682932 L102.728249,15.6658785 C102.7174,15.5978778 102.678933,15.5380773 102.621725,15.5002769" id="Fill-6" fill="#FFFFFF"></path>
                    <path d="M111.5,13.3131553 C111.5,14.9235702 110.681942,15.7060119 109,15.7060119 C107.317083,15.7060119 106.499025,14.9235702 106.499025,13.3131553 L106.499025,9.68684474 C106.499025,8.07703025 107.317083,7.29398815 109,7.29398815 C110.681942,7.29398815 111.5,8.07703025 111.5,9.68684474 L111.5,13.3131553 M109,5 C105.822348,5 104,6.73500115 104,9.76079594 L104,13.2393041 C104,16.2649988 105.822348,18 109,18 C112.176677,18 114,16.2649988 114,13.2393041 L114,9.76079594 C114,6.73500115 112.176677,5 109,5" id="Fill-7" fill="#FFFFFF"></path>
                    <path d="M57.9754512,20.5255192 L60.8681048,10.1219807 C60.9050742,9.98690349 60.9651494,9.98628149 61.0025206,10.1219807 L63.1423248,17.8935347 C63.1797965,18.0293376 63.3209432,18.1391202 63.4577701,18.1391202 L66.7522649,18.1391202 C66.8890918,18.1391202 67,18.0246726 67,17.8835827 L66.5047308,15.8390753 C66.5047308,15.6980891 66.3937221,15.5836415 66.2570961,15.5836415 L65.3284412,15.5836415 C65.1917148,15.5836415 65.0504676,15.4738588 65.0129959,15.3380559 L62.1849383,5.06689934 C62.147567,4.93120011 62.0067217,4.82141746 61.8696939,4.82141746 L59.9816432,5.08037596 C59.8449167,5.08099796 59.70377,5.19150627 59.6673029,5.3272055 L56.8409531,15.4844328 C56.8041846,15.6202357 56.7468218,15.6196137 56.7133685,15.4831888 L53.0244666,0.248280867 C52.9910134,0.111130309 52.8521772,0 52.7155513,0 L50.8102214,0.258854833 C50.6733945,0.258854833 50.5354625,0.369985141 50.5022101,0.507135699 L46.8952838,15.3360863 C46.8623329,15.4725111 46.6476492,15.5836415 46.5109228,15.5836415 L45.7428034,15.5836415 C45.6064788,15.5836415 45.4951688,15.6980891 45.4951688,15.8390753 L45,17.8835827 C45,18.0246726 45.1111091,18.1391202 45.2476346,18.1391202 L48.519124,18.1391202 C48.6559509,18.1391202 48.7938829,18.0279899 48.8273362,17.891565 L51.7108479,6.03597222 C51.7438993,5.89954732 51.7981479,5.89954732 51.8321035,6.03597222 L55.4551034,20.7498531 C55.4889585,20.886278 55.6268905,20.9986523 55.7639183,21 L57.6610104,20.7684094 C57.7976364,20.7697571 57.9385822,20.6612184 57.9754512,20.5255192" id="Fill-8" fill="#FFFFFF"></path>
                    <path d="M35.7115497,0 L33.2884503,0.229018272 C33.1288372,0.229018272 33,0.331124187 33,0.458036544 L33,2.77098173 C33,2.89742954 33.1288372,3 33.2884503,3 L35.7115497,2.77098173 C35.8706947,2.77098173 36,2.66841127 36,2.54196346 L36,0.229018272 C36,0.102013007 35.8706947,0 35.7115497,0" id="Fill-9" fill="#FFFFFF"></path>
                    <path d="M2.36695229,1 L0.24655753,1.24778997 C0.110125696,1.24778997 0,1.35816456 0,1.49568045 L0,17.0087396 C0,17.5560891 0.441503017,18 0.98623012,18 L8.75344247,18 C8.8898743,18 9,17.8890223 9,17.7523106 L9,15.8433729 C9,15.7065606 8.8898743,15.5955829 8.75344247,15.5955829 L3.10662488,15.5955829 C2.8345614,15.5955829 2.61350982,15.3743311 2.61350982,15.100003 L2.61350982,1.24778997 C2.61350982,1.11047512 2.50308405,1 2.36695229,1" id="Fill-10" fill="#FFFFFF"></path>
                    <g id="Group-14" transform="translate(10.000000, 5.000000)">
                        <mask id="mask-2" fill="white">
                            <use xlink:href="#path-1"></use>
                        </mask>
                        <g id="Clip-12"></g>
                        <path d="M5.1692,0.0514860335 C1.9103,0.0514860335 0.0415,1.79567598 0.0415,4.83626816 L0.0415,8.33178771 C0.0415,11.3722793 1.9103,13.1164693 5.1692,13.1164693 C8.4279,13.1164693 10.2967,11.3722793 10.2967,8.33178771 L10.2967,4.83626816 C10.2967,1.79567598 8.4279,0.0514860335 5.1692,0.0514860335 M5.1692,10.8105587 C3.4439,10.8105587 2.6051,10.0242905 2.6051,8.406 L2.6051,4.76135196 C2.6051,3.14426816 3.4439,2.35739665 5.1692,2.35739665 C6.8943,2.35739665 7.7328,3.14426816 7.7328,4.76135196 L7.7328,8.406 C7.7328,10.0242905 6.8943,10.8105587 5.1692,10.8105587" id="Fill-11" fill="#FFFFFF" mask="url(#mask-2)"></path>
                        <path d="M16.2125,0.0521899441 C12.8951,0.0521899441 11.2821,1.48716201 11.2821,4.43986592 L11.2821,4.98469274 C11.2821,6.54687151 11.8021,7.73084916 12.7904,8.43506145 C12.1725,9.0167933 11.8244,9.76675978 11.8244,10.5382458 C11.8244,11.5587151 12.2697,12.8136872 14.3911,12.9912737 C15.2676,13.0687039 15.7695,13.1171732 16.3471,13.1719777 C16.6947,13.2054637 17.0697,13.2423687 17.5713,13.2889274 C18.9975,13.4148268 19.1217,13.5781341 19.1217,14.355352 C19.1217,15.3429385 19.1217,15.7934413 16.0151,15.7934413 C14.8476,15.7934413 13.3297,15.6063017 12.0532,15.3042235 C12.0348,15.3003017 12.016,15.2982905 11.9972,15.2982905 C11.9497,15.2982905 11.9024,15.3119665 11.862,15.3384134 C11.8053,15.3758212 11.7663,15.4345475 11.7544,15.5017207 L11.4587,17.1375084 C11.4356,17.2640112 11.5129,17.3873966 11.6365,17.4208827 C13.0077,17.7965698 14.9416,18 16.0647,18 C20.3289,18 21.5621,17.1601341 21.5621,14.2565028 C21.5621,12.283743 20.5961,11.3426145 18.332,11.1096201 C17.5612,11.0332961 17.0173,10.976581 16.5008,10.9222793 C16.0095,10.8712961 15.5427,10.8229274 14.9285,10.7621899 C14.4016,10.7138212 14.3635,10.5614749 14.3635,10.314905 C14.3635,9.94042458 14.6861,9.59892737 15.0553,9.28518436 C15.4053,9.32711732 15.7943,9.34793296 16.2125,9.34793296 C19.4077,9.34793296 21.1675,7.7986257 21.1675,4.98469274 L21.1675,4.43343017 C21.144,3.53996648 20.9721,2.79432402 20.6557,2.21148603 L21.7311,2.00624581 C21.8477,1.98351955 21.9319,1.88165363 21.9319,1.76218994 L21.9319,0.547944134 C21.9319,0.410379888 21.8215,0.300067039 21.6853,0.300067039 L18.2697,0.300067039 C17.6483,0.117351955 16.7773,0.0521899441 16.2125,0.0521899441 M16.2125,7.14207821 C14.3043,7.14207821 13.7225,6.63787709 13.7225,4.98469274 L13.7225,4.46440223 C13.7225,2.81493855 14.3507,2.25804469 16.2125,2.25804469 C18.0509,2.25804469 18.7024,2.83575419 18.7024,4.46440223 L18.7024,4.98469274 C18.7024,6.49719553 17.9579,7.14207821 16.2125,7.14207821" id="Fill-13" fill="#FFFFFF" mask="url(#mask-2)"></path>
                    </g>
                    <path d="M35.7115497,5 L33.2884503,5.25143983 C33.1288372,5.25143983 33,5.3633382 33,5.50287965 L33,17.7485602 C33,17.8879996 33.1288372,18 33.2884503,18 L35.7115497,18 C35.8706947,18 36,17.8879996 36,17.7485602 L36,5.25143983 C36,5.11189837 35.8706947,5 35.7115497,5" id="Fill-15" fill="#FFFFFF"></path>
                    <path d="M44.3168248,15.4690771 C43.553208,15.4644869 42.7786979,15.4644869 41.9941775,15.4644869 C40.0760577,15.4644869 39.5210837,14.9721137 39.5210837,13.2132589 L39.5210837,9.63608116 C39.5210837,7.87732844 40.0760577,7.36853255 41.9941775,7.36853255 C42.8703593,7.36853255 43.4598782,7.45748003 44.295725,7.64027117 C44.3627537,7.65516376 44.433021,7.63955715 44.4884693,7.59630746 C44.5442121,7.55438382 44.5798364,7.48950928 44.5865098,7.41882052 L44.9987903,5.65486559 C45.0101744,5.53694898 44.9402015,5.42556063 44.8314639,5.38965523 C44.152737,5.1637164 42.9389583,5 41.9451082,5 C38.4792438,5 37,6.40908306 37,9.71207413 L37,13.5669068 C37,16.0146964 37.5606661,18 41.9064416,18 C42.5150975,18 43.2022642,18 43.7068932,17.9795992 C43.8409505,17.973785 43.9718675,17.8225131 44.0050384,17.6876638 L44.4951428,15.6643127 C44.5279211,15.5293615 44.4510785,15.4697911 44.3168248,15.4690771" id="Fill-16" fill="#FFFFFF"></path>
                </g>
            </g>
        </g>
    </g>
</svg>