<?xml version="1.0" encoding="UTF-8" standalone="no"?>
<svg width="243px" height="34px" viewBox="0 0 243 34" version="1.1" xmlns="http://www.w3.org/2000/svg" xmlns:xlink="http://www.w3.org/1999/xlink">
    <!-- Generator: Sketch 39.1 (31720) - http://www.bohemiancoding.com/sketch -->
    <title>Group</title>
    <desc>Created with Sketch.</desc>
    <defs>
        <polygon id="path-1" points="9.7384106 18.7300146 9.7384106 0.0784251656 0.0998384106 0.0784251656 0.0998384106 18.7300146"></polygon>
        <polygon id="path-3" points="32.7714967 0.0114834437 0.0936688742 0.0114834437 0.0936688742 30.2391046 32.7714967 30.2391046 32.7714967 0.0114834437"></polygon>
    </defs>
    <g id="Page-1" stroke="none" stroke-width="1" fill="none" fill-rule="evenodd">
        <g id="Group">
            <g id="Page-1">
                <path d="M137.189797,0.771101987 L134.099625,1.13902252 C133.896526,1.13902252 133.731705,1.30271788 133.731705,1.50671788 L133.731705,5.22149934 C133.731705,5.42459868 133.896526,5.58941987 134.099625,5.58941987 L137.189797,5.22149934 C137.392897,5.22149934 137.557718,5.05690331 137.557718,4.85380397 L137.557718,1.13902252 C137.557718,0.935022517 137.392897,0.771101987 137.189797,0.771101987" id="Fill-1" fill="#1C2841"></path>
                <path d="M107.02815,7.35577616 C102.165699,7.35577616 99.3763483,9.94315364 99.3763483,14.454796 L99.3763483,19.6419351 C99.3763483,24.1535775 102.165699,26.740955 107.02815,26.740955 C111.889474,26.740955 114.67905,24.1535775 114.67905,19.6419351 L114.67905,14.454796 C114.67905,9.94315364 111.889474,7.35577616 107.02815,7.35577616 L107.02815,7.35577616 Z M110.853037,19.7520411 C110.853037,22.1534318 109.602017,23.3202397 107.02815,23.3202397 C104.453381,23.3202397 103.202362,22.1534318 103.202362,19.7520411 L103.202362,14.3446901 C103.202362,11.9442 104.453381,10.7764914 107.02815,10.7764914 C109.602017,10.7764914 110.853037,11.9442 110.853037,14.3446901 L110.853037,19.7520411 Z" id="Fill-3" fill="#1C2841"></path>
                <path d="M127.07527,7.35577616 C124.955336,7.35577616 122.097085,8.22739205 120.137019,9.10396159 L119.932118,8.02159073 C119.898568,7.84911391 119.747257,7.72369669 119.570952,7.72369669 L117.068913,8.09139205 C116.865813,8.09139205 116.700992,8.25531258 116.700992,8.45931258 L116.700992,26.0053391 C116.700992,26.2093391 116.865813,26.3732596 117.068913,26.3732596 L120.159085,26.3732596 C120.362184,26.3732596 120.527005,26.2093391 120.527005,26.0053391 L120.527005,12.6942265 C122.329681,11.7985179 124.904674,11.0340808 126.155694,11.0340808 C127.135615,11.0340808 127.51682,11.3952464 127.51682,12.3215775 L127.51682,26.0053391 C127.51682,26.2093391 127.68074,26.3732596 127.88474,26.3732596 L130.974012,26.3732596 C131.178012,26.3732596 131.341707,26.2093391 131.341707,26.0053391 L131.341707,12.2842 C131.341707,9.01389536 129.905826,7.35577616 127.07527,7.35577616" id="Fill-5" fill="#1C2841"></path>
                <g id="Group-9" transform="translate(169.324503, 7.644146)">
                    <mask id="mask-2" fill="white">
                        <use xlink:href="#path-1"></use>
                    </mask>
                    <g id="Clip-8"></g>
                    <path d="M9.37058013,0.0881072848 C7.2968053,0.17817351 5.38469934,0.633233113 3.53699073,1.45981589 L3.33096424,0.378345695 C3.29741457,0.204968212 3.14610331,0.0784251656 2.96889801,0.0784251656 L0.46775894,0.446345695 C0.26375894,0.446345695 0.0998384106,0.611166887 0.0998384106,0.814266225 L0.0998384106,18.362094 C0.0998384106,18.5651934 0.26375894,18.7300146 0.46775894,18.7300146 L3.55793113,18.7300146 C3.76193113,18.7300146 3.92585166,18.5651934 3.92585166,18.362094 L3.92585166,5.05008079 C5.57451391,4.23092848 7.90205033,3.72903444 9.37058013,3.58627947 C9.57277881,3.5671404 9.73850066,3.40141854 9.73850066,3.19831921 L9.73850066,0.446345695 C9.73850066,0.243246358 9.57277881,0.0784251656 9.37058013,0.0881072848" id="Fill-7" fill="#1C2841" mask="url(#mask-2)"></path>
                </g>
                <path d="M137.189797,7.35577616 L134.099625,7.72369669 C133.896526,7.72369669 133.731705,7.88739205 133.731705,8.09139205 L133.731705,26.0053391 C133.731705,26.2093391 133.896526,26.3732596 134.099625,26.3732596 L137.189797,26.3732596 C137.392897,26.3732596 137.557718,26.2093391 137.557718,26.0053391 L137.557718,7.72369669 C137.557718,7.51969669 137.392897,7.35577616 137.189797,7.35577616" id="Fill-10" fill="#1C2841"></path>
                <path d="M150.742287,23.0118079 C150.656049,22.9552914 150.54887,22.9399801 150.450023,22.9638477 C149.28344,23.2655695 148.453029,23.3939139 147.673056,23.3939139 C146.314857,23.3939139 146.200923,22.9985232 146.200923,21.7760993 L146.200923,11.0341258 L150.652221,11.0341258 C150.84091,11.0341258 150.998976,10.8904702 151.018115,10.7026821 L151.27593,8.12791391 C151.286513,8.02433775 151.251837,7.92188742 151.182936,7.8442053 C151.11291,7.76674834 151.013387,7.72351656 150.90891,7.72351656 L146.200923,7.72351656 L146.200923,3.23484106 C146.200923,3.12856291 146.154764,3.02701325 146.07438,2.95698675 C145.993996,2.88718543 145.885691,2.85543709 145.781215,2.87074834 L142.691042,3.31252318 C142.510009,3.33841722 142.37491,3.49355629 142.37491,3.67751656 L142.37491,7.72351656 L139.579705,7.72351656 C139.376605,7.72351656 139.212009,7.88743709 139.212009,8.09143709 L139.212009,10.6662053 C139.212009,10.8693046 139.376605,11.0341258 139.579705,11.0341258 L142.37491,11.0341258 L142.37491,22.2906026 C142.37491,25.3681656 143.861678,26.7419007 147.195254,26.7419007 C148.490181,26.7419007 149.868645,26.4987219 151.07283,26.056947 C151.239453,25.995702 151.338976,25.8252517 151.309479,25.6498477 L150.904181,23.2590397 C150.887069,23.1574901 150.828526,23.0683245 150.742287,23.0118079" id="Fill-12" fill="#1C2841"></path>
                <path d="M159.626938,7.35577616 C154.763587,7.35577616 151.975136,9.94315364 151.975136,14.454796 L151.975136,19.6419351 C151.975136,24.1535775 154.763587,26.740955 159.626938,26.740955 C164.489163,26.740955 167.278739,24.1535775 167.278739,19.6419351 L167.278739,14.454796 C167.278739,9.94315364 164.489163,7.35577616 159.626938,7.35577616 L159.626938,7.35577616 Z M163.452951,19.7520411 C163.452951,22.1534318 162.201706,23.3202397 159.626938,23.3202397 C157.05217,23.3202397 155.800024,22.1534318 155.800024,19.7520411 L155.800024,14.3446901 C155.800024,11.9442 157.05217,10.7764914 159.626938,10.7764914 C162.201706,10.7764914 163.452951,11.9442 163.452951,14.3446901 L163.452951,19.7520411 Z" id="Fill-14" fill="#1C2841"></path>
                <g id="Group-18" transform="translate(66.423841, 0.213682)">
                    <mask id="mask-4" fill="white">
                        <use xlink:href="#path-3"></use>
                    </mask>
                    <g id="Clip-17"></g>
                    <path d="M19.3667152,29.5561775 L23.6635497,14.5810914 C23.7184901,14.3867735 23.8076556,14.3858728 23.8630464,14.5810914 L27.0414834,25.7675417 C27.0970993,25.9629854 27.3069536,26.1210517 27.5098278,26.1210517 L32.4035762,26.1210517 C32.6066755,26.1210517 32.7714967,25.9564556 32.7714967,25.7533563 L32.0358808,22.8106675 C32.0358808,22.6075682 31.8710596,22.442747 31.6679603,22.442747 L30.288596,22.442747 C30.0854967,22.442747 29.8756424,22.2846808 29.8202517,22.0892371 L25.6195629,7.30486623 C25.563947,7.10942252 25.354543,6.95135629 25.1509934,6.95135629 L22.3467815,7.3240053 C22.1436821,7.32513113 21.9338278,7.48409801 21.8797881,7.67954172 L17.6818013,22.2999921 C17.6270861,22.4954358 17.5419735,22.4945351 17.4922119,22.2981907 L12.0128079,0.36864106 C11.9630464,0.171396026 11.7570199,0.0113033113 11.5541457,0.0113033113 L8.72381457,0.383952318 C8.52071523,0.383952318 8.31581457,0.544045033 8.26650331,0.741290066 L2.90891391,22.0865351 C2.86005298,22.2828795 2.54099338,22.442747 2.33789404,22.442747 L1.1972053,22.442747 C0.994556291,22.442747 0.829284768,22.6075682 0.829284768,22.8106675 L0.0936688742,25.7533563 C0.0936688742,25.9564556 0.258940397,26.1210517 0.461364238,26.1210517 L5.32088742,26.1210517 C5.52398675,26.1210517 5.72888742,25.9611841 5.77887417,25.7648397 L10.0615232,8.69976689 C10.1110596,8.50319735 10.1914437,8.50319735 10.2416556,8.69976689 L15.6231126,29.8790649 C15.6735497,30.0754093 15.8784503,30.2373033 16.082,30.2391046 L18.8997219,29.9058596 C19.1028212,29.9076609 19.3122252,29.7516212 19.3667152,29.5561775" id="Fill-16" fill="#1C2841" mask="url(#mask-4)"></path>
                </g>
                <path d="M51.7915245,0.771101987 L48.7018026,1.13902252 C48.498253,1.13902252 48.3338821,1.30271788 48.3338821,1.50671788 L48.3338821,5.22149934 C48.3338821,5.42459868 48.498253,5.58941987 48.7018026,5.58941987 L51.7915245,5.22149934 C51.9946238,5.22149934 52.159445,5.05690331 52.159445,4.85380397 L52.159445,1.13902252 C52.159445,0.935022517 51.9946238,0.771101987 51.7915245,0.771101987" id="Fill-19" fill="#0076FF"></path>
                <path d="M3.53109139,1.13895497 L0.367740397,1.5068755 C0.164190728,1.5068755 4.50331126e-05,1.67057086 4.50331126e-05,1.87457086 L4.50331126e-05,24.9027033 C4.50331126e-05,25.7151007 0.658654305,26.3741603 1.47127682,26.3741603 L13.058747,26.3741603 C13.2622967,26.3741603 13.4264424,26.2093391 13.4264424,26.0062397 L13.4264424,23.1727563 C13.4264424,22.969657 13.2622967,22.8050609 13.058747,22.8050609 L4.63462781,22.8050609 C4.2286543,22.8050609 3.89901192,22.4763192 3.89901192,22.0692199 L3.89901192,1.5068755 C3.89901192,1.3028755 3.73419073,1.13895497 3.53109139,1.13895497" id="Fill-21" fill="#0076FF"></path>
                <path d="M21.7399603,23.3203073 C19.1656424,23.3203073 17.913947,22.1534993 17.913947,19.7521086 L17.913947,14.3436318 C17.913947,11.9440424 19.1656424,10.7765589 21.7399603,10.7765589 C24.314053,10.7765589 25.565298,11.9440424 25.565298,14.3436318 L25.565298,19.7521086 C25.565298,22.1534993 24.314053,23.3203073 21.7399603,23.3203073 M21.7399603,7.35471788 C16.8770596,7.35471788 14.0883841,9.94299603 14.0883841,14.4548636 L14.0883841,19.6420026 C14.0883841,24.153645 16.8770596,26.7419232 21.7399603,26.7419232 C26.6026358,26.7419232 29.3913113,24.153645 29.3913113,19.6420026 L29.3913113,14.4548636 C29.3913113,9.94299603 26.6026358,7.35471788 21.7399603,7.35471788" id="Fill-23" fill="#0076FF"></path>
                <path d="M38.2188596,17.876457 C35.3711907,17.876457 34.5031775,17.128457 34.5031775,14.675053 L34.5031775,13.9031854 C34.5031775,11.4556358 35.4405417,10.6288278 38.2188596,10.6288278 C40.9620517,10.6288278 41.9340914,11.4862583 41.9340914,13.9031854 L41.9340914,14.675053 C41.9340914,16.9195033 40.8231245,17.876457 38.2188596,17.876457 M38.2188596,7.35582119 C33.2683695,7.35582119 30.8615748,9.48521192 30.8615748,13.8667086 L30.8615748,14.675053 C30.8615748,16.9933576 31.6374954,18.7500993 33.1123298,19.7950927 C32.1902768,20.6581523 31.6708199,21.7713709 31.6708199,22.9161126 C31.6708199,24.4305762 32.3355086,26.2926954 35.5008861,26.5561391 C36.8088728,26.6709735 37.5577735,26.7428013 38.4194821,26.8243113 C38.9382636,26.8740728 39.4980252,26.9287881 40.2462503,26.9976887 C42.3745152,27.1845762 42.5598265,27.4268543 42.5598265,28.5801523 C42.5598265,30.045755 42.5598265,30.7142715 37.9241179,30.7142715 C36.1820119,30.7142715 33.9170715,30.4366424 32.012396,29.9883377 C31.9847007,29.9824834 31.9567801,29.9797815 31.9288596,29.9797815 C31.8579325,29.9797815 31.7872305,29.9998212 31.7268861,30.039 C31.642449,30.0946159 31.5841311,30.181755 31.566343,30.2815033 L31.1250185,32.7087881 C31.0905682,32.8965762 31.2060781,33.0794106 31.3904887,33.1293974 C33.4365682,33.6866821 36.3222901,33.988404 37.9981974,33.988404 C44.361151,33.988404 46.2014291,32.7423377 46.2014291,28.4335695 C46.2014291,25.5061921 44.7599192,24.1094901 41.3815351,23.7638609 C40.2311642,23.6508278 39.4196675,23.5663907 38.6489258,23.4860066 C37.9157868,23.410351 37.2193497,23.3385232 36.3029258,23.248457 C35.5166477,23.1766291 35.4596808,22.9505629 35.4596808,22.5846689 C35.4596808,22.0289603 35.9413099,21.5223377 36.4920649,21.0566954 C37.0142238,21.1190662 37.5944755,21.1496887 38.2188596,21.1496887 C42.9865152,21.1496887 45.612396,18.8507483 45.612396,14.675053 L45.612396,13.8570265 C45.5774954,12.5312517 45.3210318,11.4250132 44.8488596,10.5599272 L46.4536146,10.2552781 C46.6276675,10.2217285 46.7530848,10.0704172 46.7530848,9.89321192 L46.7530848,8.09143709 C46.7530848,7.88743709 46.5884887,7.72351656 46.3853894,7.72351656 L41.2885417,7.72351656 C40.3613099,7.45241722 39.0616543,7.35582119 38.2188596,7.35582119" id="Fill-25" fill="#0076FF"></path>
                <path d="M51.7915245,7.35577616 L48.7018026,7.72369669 C48.498253,7.72369669 48.3338821,7.88739205 48.3338821,8.09139205 L48.3338821,26.0053391 C48.3338821,26.2093391 48.498253,26.3732596 48.7018026,26.3732596 L51.7915245,26.3732596 C51.9946238,26.3732596 52.159445,26.2093391 52.159445,26.0053391 L52.159445,7.72369669 C52.159445,7.51969669 51.9946238,7.35577616 51.7915245,7.35577616" id="Fill-27" fill="#0076FF"></path>
                <path d="M65.4982079,22.6708172 C64.3370291,22.6640623 63.1594132,22.6640623 61.9667113,22.6640623 C59.0501417,22.6640623 58.2064464,21.9437576 58.2064464,19.3707907 L58.2064464,14.1377179 C58.2064464,11.564751 59.0501417,10.8205788 61.9667113,10.8205788 C63.2987907,10.8205788 64.1951748,10.9509497 65.4662344,11.217996 C65.5682344,11.2400623 65.6749629,11.2170954 65.7591748,11.1538238 C65.8440623,11.0925788 65.898102,10.9977841 65.9082344,10.8942079 L66.5350954,8.31358543 C66.5524331,8.14133377 66.446155,7.97831391 66.2808834,7.92585033 C65.2487245,7.59530728 63.4032675,7.35573113 61.8921815,7.35573113 C56.6221815,7.35573113 54.3730026,9.41712185 54.3730026,14.2489497 L54.3730026,19.887996 C54.3730026,23.468804 55.2257046,26.3732146 61.8331881,26.3732146 C62.7588437,26.3732146 63.8033868,26.3732146 64.5709762,26.3434927 C64.7745258,26.3347113 64.9737974,26.1135987 65.0240093,25.9161285 L65.7693073,22.9563272 C65.8190689,22.758857 65.7022079,22.6717179 65.4982079,22.6708172" id="Fill-29" fill="#0076FF"></path>
            </g>
            <g id="ICP-beta" transform="translate(185.761589, 12.158940)">
                <path d="M2.41602649,14.1854305 L0.053589404,14.1854305 L0.053589404,0.45618543 L2.41602649,0.45618543 L2.41602649,14.1854305 Z M11.8076821,14.475894 C9.88415815,14.475894 8.24789637,13.8239712 6.89884768,12.520106 C5.54979899,11.2162407 4.87528477,9.48638606 4.87528477,7.33049007 C4.87528477,5.18750363 5.55948102,3.45764897 6.92789404,2.14087417 C8.29630706,0.824099376 9.91643214,0.165721854 11.7883179,0.165721854 C13.4407412,0.165721854 14.7994516,0.585276158 15.8644901,1.42439735 C16.9295285,2.26351854 17.6298615,3.32854101 17.9655099,4.61949669 L15.777351,5.35533775 C15.5578885,4.46457833 15.1125155,3.74165399 14.4412185,3.18654305 C13.7699216,2.6314321 12.8856302,2.35388079 11.7883179,2.35388079 C10.56191,2.35388079 9.50011486,2.7895718 8.60290066,3.66096689 C7.70568646,4.53236197 7.25708609,5.75552413 7.25708609,7.33049007 C7.25708609,8.86672733 7.70245912,10.0705254 8.59321854,10.9419205 C9.48397796,11.8133156 10.5554551,12.2490066 11.8076821,12.2490066 C12.8791753,12.2490066 13.7634667,11.958546 14.4605828,11.3776159 C15.1576988,10.7966858 15.6353453,10.0802162 15.8935364,9.22818543 L18.0236026,9.92529801 C17.6879542,11.2033441 16.9811665,12.281276 15.9032185,13.1591258 C14.8252705,14.0369757 13.4601054,14.475894 11.8076821,14.475894 L11.8076821,14.475894 Z M22.7097483,6.76892715 L25.1302781,6.76892715 C25.8661229,6.76892715 26.4438169,6.57851405 26.8633775,6.19768212 C27.2829381,5.81685019 27.4927152,5.30370301 27.4927152,4.65822517 C27.4927152,3.99983777 27.2829381,3.47700856 26.8633775,3.08972185 C26.4438169,2.70243515 25.8661229,2.5087947 25.1302781,2.5087947 L22.7097483,2.5087947 L22.7097483,6.76892715 Z M25.4788344,8.82153642 L22.7097483,8.82153642 L22.7097483,14.1854305 L20.3860397,14.1854305 L20.3860397,0.45618543 L25.4788344,0.45618543 C26.7826997,0.45618543 27.8380401,0.849921007 28.6448874,1.63740397 C29.4517347,2.42488694 29.8551523,3.42536259 29.8551523,4.63886093 C29.8551523,5.86526883 29.4517347,6.86897181 28.6448874,7.65 C27.8380401,8.43102819 26.7826997,8.82153642 25.4788344,8.82153642 L25.4788344,8.82153642 Z" id="ICP" fill="#0076FF"></path>
                <path d="M32.8201325,4.82304636 L33.7860927,4.82304636 L33.7860927,9.23178808 L33.8108609,9.23178808 C34.0750565,8.91805583 34.3825921,8.67450418 34.7334768,8.50112583 C35.0843616,8.32774748 35.470329,8.2410596 35.8913907,8.2410596 C36.3454769,8.2410596 36.7603403,8.31742749 37.1359934,8.47016556 C37.5116465,8.62290363 37.831566,8.83549533 38.0957616,9.10794702 C38.3599572,9.38039871 38.5663569,9.70238225 38.7149669,10.0739073 C38.8635769,10.4454323 38.9378808,10.8499757 38.9378808,11.2875497 C38.9378808,11.7251236 38.8635769,12.129667 38.7149669,12.5011921 C38.5663569,12.8727171 38.3620212,13.1947006 38.1019536,13.4671523 C37.8418861,13.739604 37.5343506,13.9521957 37.1793377,14.1049338 C36.8243249,14.2576718 36.4445495,14.3340397 36.04,14.3340397 C35.5198649,14.3340397 35.0637216,14.2205199 34.6715563,13.9934768 C34.279391,13.7664337 33.9924954,13.4877941 33.8108609,13.1575497 L33.7860927,13.1575497 L33.7860927,14.1854305 L32.8201325,14.1854305 L32.8201325,4.82304636 Z M33.7860927,11.2875497 C33.7860927,11.5930258 33.8335646,11.8757934 33.9285099,12.1358609 C34.0234552,12.3959285 34.161743,12.6229681 34.3433775,12.8169868 C34.5250119,13.0110054 34.7417316,13.1637412 34.993543,13.2751987 C35.2453545,13.3866562 35.5281221,13.4423841 35.8418543,13.4423841 C36.1555866,13.4423841 36.4383541,13.3866562 36.6901656,13.2751987 C36.941977,13.1637412 37.1586967,13.0110054 37.3403311,12.8169868 C37.5219656,12.6229681 37.6602534,12.3959285 37.7551987,12.1358609 C37.850144,11.8757934 37.8976159,11.5930258 37.8976159,11.2875497 C37.8976159,10.9820735 37.850144,10.6993059 37.7551987,10.4392384 C37.6602534,10.1791709 37.5219656,9.95213121 37.3403311,9.75811258 C37.1586967,9.56409395 36.941977,9.41135817 36.6901656,9.29990066 C36.4383541,9.18844315 36.1555866,9.13271523 35.8418543,9.13271523 C35.5281221,9.13271523 35.2453545,9.18844315 34.993543,9.29990066 C34.7417316,9.41135817 34.5250119,9.56409395 34.3433775,9.75811258 C34.161743,9.95213121 34.0234552,10.1791709 33.9285099,10.4392384 C33.8335646,10.6993059 33.7860927,10.9820735 33.7860927,11.2875497 L33.7860927,11.2875497 Z M45.6129139,13.1327815 C45.2661572,13.5786115 44.8863818,13.8902751 44.4735762,14.0677815 C44.0607706,14.2452879 43.5819233,14.3340397 43.0370199,14.3340397 C42.5829337,14.3340397 42.1742623,14.2535439 41.8109934,14.0925497 C41.4477245,13.9315555 41.1401889,13.7148358 40.8883775,13.4423841 C40.6365661,13.1699324 40.4425503,12.8479489 40.3063245,12.4764238 C40.1700987,12.1048988 40.1019868,11.7086114 40.1019868,11.2875497 C40.1019868,10.8417196 40.1762906,10.4309842 40.3249007,10.0553311 C40.4735107,9.67967803 40.6799104,9.3576945 40.944106,9.08937086 C41.2083015,8.82104722 41.5220291,8.61258352 41.885298,8.46397351 C42.2485669,8.3153635 42.6448544,8.2410596 43.0741722,8.2410596 C43.4787217,8.2410596 43.8502411,8.3091715 44.1887417,8.44539735 C44.5272423,8.5816232 44.8182659,8.77976691 45.0618212,9.03983444 C45.3053765,9.29990196 45.4932002,9.6177575 45.625298,9.9934106 C45.7573958,10.3690637 45.8234437,10.7963111 45.8234437,11.2751656 L45.8234437,11.5847682 L41.1422517,11.5847682 C41.1587639,11.8324516 41.2186198,12.0698112 41.3218212,12.2968543 C41.4250226,12.5238974 41.5591824,12.7220411 41.7243046,12.8912914 C41.8894269,13.0605417 42.0834426,13.1947015 42.3063576,13.2937748 C42.5292726,13.3928482 42.7728243,13.4423841 43.0370199,13.4423841 C43.4580816,13.4423841 43.8130891,13.3680802 44.102053,13.2194702 C44.3910169,13.0708602 44.6510805,12.8520765 44.8822517,12.5631126 L45.6129139,13.1327815 Z M44.7831788,10.7674172 C44.7666666,10.2720505 44.6056748,9.87576308 44.3001987,9.57854305 C43.9947225,9.28132302 43.5736671,9.13271523 43.0370199,9.13271523 C42.5003726,9.13271523 42.0669332,9.28132302 41.7366887,9.57854305 C41.4064443,9.87576308 41.2083006,10.2720505 41.1422517,10.7674172 L44.7831788,10.7674172 Z M50.4922517,9.20701987 L48.783245,9.20701987 L48.783245,12.1049007 C48.783245,12.2947912 48.787373,12.470231 48.7956291,12.6312252 C48.8038853,12.7922193 48.8369092,12.9325711 48.894702,13.0522848 C48.9524948,13.1719984 49.0391826,13.2669423 49.1547682,13.3371192 C49.2703538,13.4072962 49.4354735,13.4423841 49.6501325,13.4423841 C49.7904864,13.4423841 49.9349661,13.4258721 50.0835762,13.3928477 C50.2321862,13.3598232 50.372538,13.3102873 50.5046358,13.2442384 L50.5417881,14.1235099 C50.3766658,14.1978149 50.1929701,14.2514789 49.9906954,14.2845033 C49.7884206,14.3175278 49.5964689,14.3340397 49.4148344,14.3340397 C49.0680777,14.3340397 48.7915021,14.2886318 48.5850993,14.1978146 C48.3786965,14.1069973 48.2177048,13.9790295 48.1021192,13.8139073 C47.9865336,13.648785 47.9101657,13.4444493 47.8730132,13.200894 C47.8358607,12.9573387 47.8172848,12.6869551 47.8172848,12.3897351 L47.8172848,9.20701987 L46.554106,9.20701987 L46.554106,8.38966887 L47.8172848,8.38966887 L47.8172848,6.74258278 L48.783245,6.74258278 L48.783245,8.38966887 L50.4922517,8.38966887 L50.4922517,9.20701987 Z M51.6068212,9.13271523 C51.9040412,8.82723909 52.2569847,8.60226342 52.6656623,8.45778146 C53.0743398,8.3132995 53.4892032,8.2410596 53.9102649,8.2410596 C54.7689005,8.2410596 55.3880996,8.44333131 55.7678808,8.84788079 C56.1476619,9.25243028 56.3375497,9.86750139 56.3375497,10.6931126 L56.3375497,13.1823179 C56.3375497,13.3474401 56.3458057,13.5187519 56.3623179,13.6962583 C56.3788301,13.8737647 56.3994701,14.0368204 56.4242384,14.1854305 L55.4954305,14.1854305 C55.462406,14.0533327 55.44383,13.9067889 55.439702,13.7457947 C55.4355739,13.5848005 55.4335099,13.4423847 55.4335099,13.318543 L55.4087417,13.318543 C55.2188511,13.6157631 54.9649795,13.8593147 54.6471192,14.0492053 C54.3292589,14.2390959 53.9474194,14.3340397 53.5015894,14.3340397 C53.2043694,14.3340397 52.9257298,14.2968878 52.6656623,14.2225828 C52.4055947,14.1482778 52.1785551,14.0388859 51.9845364,13.894404 C51.7905178,13.749922 51.635718,13.5703543 51.5201325,13.3556954 C51.4045469,13.1410365 51.346755,12.8933568 51.346755,12.612649 C51.346755,12.1337945 51.4705948,11.7581471 51.7182781,11.4856954 C51.9659615,11.2132437 52.2734971,11.010972 52.640894,10.8788742 C53.008291,10.7467764 53.4045784,10.6642165 53.8297682,10.6311921 C54.254958,10.5981676 54.6450534,10.5816556 55.0000662,10.5816556 L55.3715894,10.5816556 L55.3715894,10.4082781 C55.3715894,9.98721644 55.2456856,9.6693609 54.9938742,9.45470199 C54.7420628,9.24004308 54.3891193,9.13271523 53.9350331,9.13271523 C53.6213009,9.13271523 53.3137653,9.18431516 53.0124172,9.28751656 C52.7110691,9.39071796 52.4448135,9.54964573 52.2136424,9.76430464 L51.6068212,9.13271523 Z M54.4056291,11.3990066 C53.7864207,11.3990066 53.2951895,11.4856945 52.9319205,11.6590728 C52.5686516,11.8324512 52.3870199,12.1172828 52.3870199,12.5135762 C52.3870199,12.8768451 52.5087957,13.1348447 52.752351,13.2875828 C52.9959063,13.4403209 53.2993139,13.5166887 53.6625828,13.5166887 C53.9432906,13.5166887 54.1889062,13.4692168 54.3994371,13.3742715 C54.6099679,13.2793262 54.7854077,13.1534224 54.9257616,12.9965563 C55.0661155,12.8396902 55.1734433,12.6559944 55.2477483,12.4454636 C55.3220534,12.2349327 55.3633333,12.009957 55.3715894,11.7705298 L55.3715894,11.3990066 L54.4056291,11.3990066 Z" id="beta" fill="#4D9FFF"></path>
            </g>
        </g>
    </g>
</svg>